<?xml version="1.0" standalone="no"?>
<!DOCTYPE svg PUBLIC "-//W3C//DTD SVG 1.1//EN" "http://www.w3.org/Graphics/SVG/1.1/DTD/svg11.dtd" >
<svg xmlns="http://www.w3.org/2000/svg">
<metadata></metadata>
<defs>
<font id="nothing_you_could_doregular" horiz-adv-x="1074" >
<font-face units-per-em="2048" ascent="1638" descent="-410" />
<missing-glyph horiz-adv-x="1344" />
<glyph horiz-adv-x="2048" />
<glyph horiz-adv-x="2048" />
<glyph unicode="&#xd;" horiz-adv-x="1024" />
<glyph unicode=" "  horiz-adv-x="1344" />
<glyph unicode="&#x09;" horiz-adv-x="1344" />
<glyph unicode="&#xa0;" horiz-adv-x="1344" />
<glyph unicode="!" horiz-adv-x="664" d="M25 123q17 35 46 58t59 25t40 -36q8 -36 0 -77t-29 -66t-51 -22t-62 53q-20 30 -3 65zM170 762q-6 16 4 76t31 146t51 191t65 210t72 202t74 169t71 111t60 25q2 -14 -10 -85t-34 -174t-53 -228t-66 -245t-72 -224t-72 -166t-66 -70t-55 62z" />
<glyph unicode="&#x22;" horiz-adv-x="710" d="M150 1383q0 53 2 89q0 28 8 32t21 -8t27 -34t27 -44t21 -39t8 -19q2 -32 3 -84t1 -102t-1 -86t-3 -38l-28 -28q-4 2 -13 9t-18 16t-16 17t-9 14q-12 34 -18 87t-9 109t-3 109zM434 1078v424q48 24 74 -1t36 -77t8 -122t-12 -134t-23 -113t-25 -61q-4 2 -16 13t-14 15 q-6 10 -17 31t-11 25z" />
<glyph unicode="#" horiz-adv-x="1722" d="M44 424q-12 24 30 39t110 32t147 42t143 67t97 107t9 165q-26 2 -70 -5t-95 -16t-104 -15t-98 0t-76 27t-37 65q62 26 129 44t136 33t137 29t134 36l36 66t52 89t55 77t44 31t22 -47t-11 -160q78 -14 126 16t76 79t42 105t26 95t27 48t43 -33q20 -32 21 -66t-5 -69 t-13 -71t-3 -74q48 -4 115 -5t136 -1t131 1t102 -2t47 -11t-35 -23t-140 -40t-272 -61q-76 -16 -133 -70t-87 -115t-27 -115t49 -68q8 -4 57 4t115 19t139 19t130 5t87 -20t10 -57t-71 -57t-116 -23t-136 -5t-133 -5t-108 -22t-60 -56q-6 -28 -14 -92t-23 -136t-40 -135 t-63 -89q-4 2 -16 12t-14 16q-8 46 3 100t23 107t17 102t-13 87q-8 16 -21 23t-28 9t-32 0t-33 -4q-68 -10 -103 -39t-51 -69t-21 -86t-14 -89t-28 -81t-65 -60q-44 30 -52 71t-1 87t19 93t6 87q-6 0 -57 -6t-113 -5t-119 15t-77 54zM662 650q0 -18 1 -34t1 -22 q92 -14 142 10t75 72t37 115t28 141q-18 56 -46 63t-59 -16t-62 -66t-56 -87t-41 -79t-18 -41q0 -6 -1 -22t-1 -34z" />
<glyph unicode="$" horiz-adv-x="1186" d="M42 480q0 34 30 56q10 0 38 4t60 9t60 10t38 7q8 2 23 6t28 8t24 8t11 6l142 396q10 30 -16 55t-67 51t-88 53t-79 61t-38 76t34 98q26 36 77 53t109 29t115 24t93 36q14 10 31 49t36 88t41 98t45 78t48 26t53 -57q12 -24 7 -52t-14 -58t-17 -60t-4 -56h254q6 0 16 -11 t12 -17q0 -6 1 -18t1 -26t-1 -26t-1 -16q-90 -6 -173 -17t-144 -44t-92 -98t-15 -179q186 -68 275 -130t106 -121t-23 -112t-112 -100t-161 -88t-168 -75t-136 -61t-63 -47l-112 -338q-2 -6 -18 -23t-35 -29t-37 -10t-24 32q-8 54 2 109t25 103t24 88t-4 66t-55 34t-132 -4 q-30 22 -30 56zM378 1249q14 -23 32 -35q70 -48 108 -41t50 40t2 76t-37 68t-66 17t-85 -76q-18 -26 -4 -49zM550 620q56 -10 119 9t121 54t107 80t77 85q-2 42 -30 76t-70 52t-93 15t-97 -33t-83 -91t-51 -161v-86z" />
<glyph unicode="%" horiz-adv-x="820" d="M28 184q72 158 156 308t170 299t169 300t155 307q46 16 64 -1t20 -48t-8 -65t-18 -54q-66 -142 -140 -280t-151 -274l-154 -272t-149 -274q-28 -38 -48 -33t-36 33q-4 6 -16 27t-14 27zM28 184q72 158 156 308t170 299t169 300t155 307q46 16 64 -1t20 -48t-8 -65 t-18 -54q-66 -142 -140 -280t-151 -274l-154 -272t-149 -274q-28 -38 -48 -33t-36 33q-4 6 -16 27t-14 27zM164 1214q-16 48 8 68t56 15t52 -34t-4 -77q-10 -4 -27 -6t-34 0t-31 9t-20 25q-16 48 8 68t56 15t52 -34t-4 -77q-10 -4 -27 -6t-34 0t-31 9t-20 25zM566 300 q-16 48 8 67t56 14t52 -33t-4 -78q-10 -4 -27 -6t-34 0t-31 10t-20 26zM566 300q-16 48 8 67t56 14t52 -33t-4 -78q-10 -4 -27 -6t-34 0t-31 10t-20 26z" />
<glyph unicode="&#x26;" horiz-adv-x="960" d="M47 521q-11 35 15 72t70 78t96 84t93 89t62 95t1 101q-30 -6 -63 -5t-64 11t-58 29t-41 49q-18 38 23 84t101 97t117 105t69 108q38 172 61 254t37 100t20 -15t9 -93t5 -134t10 -138q38 -18 76 4t76 52t78 52t82 4q14 -56 -12 -93t-71 -62t-99 -45t-97 -45t-63 -60t2 -89 q140 14 210 6t87 -32t-6 -62t-68 -86t-102 -104t-105 -114t-78 -117t-22 -115q14 2 55 2h86h85t56 -2q72 -6 78 -21t-28 -36t-93 -44t-118 -43t-104 -34t-47 -18q-24 -34 -32 -86t-11 -112t-3 -122t-8 -116t-28 -96t-58 -62l-58 58q-16 14 -19 53t1 91t13 111t17 114t13 99 t3 68q-124 30 -182 63t-69 68zM214 558q38 -6 69 -5t51 13t26 38t-4 68q-16 4 -32 0t-31 -13t-28 -20t-21 -23q-4 -6 -15 -28zM552 1010q22 -8 47 6t39 24h-86v-30z" />
<glyph unicode="'" horiz-adv-x="528" d="M168 1116q0 32 1 60t3 40q0 2 6 23t15 48t19 54t16 43q28 74 47 91t30 -4t14 -72t-1 -111t-16 -122t-30 -105t-43 -59t-57 16q-2 10 -3 38t-1 60z" />
<glyph unicode="(" horiz-adv-x="720" d="M73 638q7 168 47 342t97 332t124 287t131 206t115 91t77 -58q-82 -74 -167 -201t-156 -283t-120 -329t-61 -339t20 -313t124 -251q12 -14 51 -40t84 -57t88 -65t64 -67t11 -62t-70 -49q-4 -2 -15 -2t-15 2q-18 14 -58 53t-85 84t-85 86t-54 59q-88 108 -121 257t-26 317z " />
<glyph unicode=")" horiz-adv-x="620" d="M46 -189q0 9 4 13q138 126 224 281t127 327t40 354t-36 364t-99 357t-150 331q-8 20 -3 47t31 37q140 -112 221 -281t115 -366t28 -406t-40 -401t-88 -352t-118 -259t-130 -121t-122 62q-4 4 -4 13z" />
<glyph unicode="*" horiz-adv-x="1398" d="M44 389q-16 19 0 63q56 10 125 14t126 20t92 52t23 112q-6 36 -38 71t-65 69t-56 69t-9 73q28 12 57 7t55 -20t48 -34t36 -37q10 22 25 59t34 74t40 64t40 29t35 -29t24 -113q4 4 15 14t13 14q6 8 18 28t26 43t26 43t16 28q54 18 70 -5t8 -71t-32 -111t-48 -123t-42 -107 t-14 -65q82 -6 163 0t161 14t161 14t165 2q14 -30 -28 -52t-112 -39t-153 -31t-150 -29t-105 -33t-16 -42l254 -282v-58h-86l-338 312q-4 -48 2 -94t14 -91t13 -91t-1 -92h-86l-84 170q-8 16 -29 -7t-47 -57t-51 -64t-41 -29t-19 47t17 166q8 46 -12 66t-53 27t-72 8t-69 8 t-46 26z" />
<glyph unicode="+" horiz-adv-x="862" d="M28 480q2 2 10 6t17 9t18 9t13 4q14 4 55 12t86 17l85 17t56 12l56 394q2 14 16 23t29 9t27 -8t12 -24v-366q14 0 50 -4t77 -9t77 -9t52 -6q6 -2 29 -13t27 -17q-26 -42 -71 -56t-92 -20t-88 -16t-61 -48q-24 -50 -20 -101t13 -102t10 -100t-29 -93q-4 2 -16 13t-14 15 q-24 36 -39 85t-23 101t-12 103t-10 93h-282z" />
<glyph unicode="," horiz-adv-x="452" d="M-30 -364q-12 34 11 80t59 93t74 91t54 74q24 46 32 91t11 90t4 91t9 96q6 48 20 53t29 -18t29 -69t22 -99t5 -109t-19 -98q-4 -8 -20 -45t-40 -86t-54 -103t-64 -95t-68 -62t-66 -5q-6 2 -16 14t-12 16z" />
<glyph unicode="-" horiz-adv-x="1244" d="M72 706q-32 32 4 62t115 55t189 43t227 28t229 8t195 -17t125 -45t18 -78q-26 0 -90 -4t-137 -8t-137 -8t-90 -6q-62 -6 -152 -30t-184 -40t-179 -12t-133 52z" />
<glyph unicode="." horiz-adv-x="366" d="M63 100q1 36 17 66t43 50t57 24t58 -12t44 -58q16 -38 -4 -79t-54 -67t-74 -29t-64 33t-23 72z" />
<glyph unicode="/" horiz-adv-x="776" d="M58 28q-16 96 8 229t73 284t117 311t139 311t138 281t117 224q26 18 45 8t29 -32t13 -49t-1 -41l-30 -66t-45 -100t-53 -117t-53 -117t-45 -100t-28 -64q-12 -24 -37 -85t-52 -129t-50 -128t-31 -82q-12 -34 -30 -106t-39 -153t-47 -158t-54 -121q-6 -8 -18 -17t-26 -12 t-25 2t-15 27z" />
<glyph unicode="0" horiz-adv-x="1214" d="M66 431q18 133 72 280t133 284t177 253t204 187t215 85t209 -52q74 -50 92 -151t-8 -229t-88 -272t-147 -281t-184 -255t-201 -193t-198 -96t-172 37q-76 56 -99 163t-5 240zM156 264q0 -90 42 -152q38 -56 94 -50t121 58t137 138t141 190t131 216t111 214t79 183t34 125 q10 112 -15 164t-74 54t-117 -39t-144 -111t-154 -165t-147 -201t-124 -217t-85 -214t-30 -193z" />
<glyph unicode="1" horiz-adv-x="692" d="M26 130q4 66 26 135t50 129t40 86q8 20 32 79t55 137t68 167t68 167t55 136t32 78q6 16 15 49t21 70t28 70t35 50t44 9t55 -52q2 -2 -19 -64t-57 -163t-83 -229t-97 -262t-98 -263t-87 -230t-65 -164t-32 -65q-4 -2 -25 8t-29 20q-36 36 -32 102z" />
<glyph unicode="2" horiz-adv-x="1370" d="M57 84q7 30 29 58q94 112 189 216t183 212t166 223t140 251q32 72 26 106t-36 42t-78 -2t-99 -29t-98 -38t-76 -29t-34 -4t29 40q46 54 112 93t134 57t130 14t100 -38t43 -99t-41 -167q-54 -120 -135 -224t-167 -203t-165 -201t-127 -220q40 -12 124 11t189 60t219 77 t217 62t183 17t116 -57q4 -6 4 -29t-4 -29q-76 14 -181 -10t-223 -64t-242 -86t-237 -76t-207 -33t-154 43q-36 26 -29 56z" />
<glyph unicode="3" horiz-adv-x="1298" d="M45 103q-3 11 2 22t25 17q26 8 58 4t66 -13t67 -17t63 -4q38 4 105 31t147 69t165 96t161 113t135 118t86 113t15 97t-80 71q-46 8 -118 -8t-152 -41t-160 -48t-140 -29t-92 14t-16 82q34 38 90 97t114 128t111 143t81 140q-2 0 -41 -11t-94 -24t-117 -23t-109 -10 t-68 15t5 53q4 8 52 36t116 61t147 64t147 44t114 1t48 -65t-49 -155t-179 -266v-86q200 16 313 -19t154 -100t19 -153t-92 -181t-182 -181t-250 -153t-295 -99t-317 -18q-4 2 -15 14t-13 16q-6 10 -15 22t-12 23z" />
<glyph unicode="4" horiz-adv-x="1356" d="M46 791q6 65 37 139t79 153t96 157t90 151t62 135q58 14 83 0t29 -45t-9 -74t-33 -85t-40 -79t-30 -57q-12 -22 -40 -74t-59 -110t-59 -110t-40 -72v-58q60 -6 127 5t134 30t130 41t117 38q122 34 196 104t122 164t83 206t81 232q58 20 74 -14t5 -97t-39 -144t-57 -157 t-51 -134t-18 -76q40 16 82 1t60 -57q-16 -34 -49 -47t-71 -22t-75 -23t-59 -50q-52 -82 -89 -172t-67 -185t-53 -191t-45 -186q-8 -4 -21 -5t-27 2t-25 11t-13 22q-12 58 -2 115t30 114t45 114t45 113t28 111t-6 111q-52 8 -115 -9t-132 -42t-140 -50t-135 -34t-119 6 t-91 71q-32 48 -26 113z" />
<glyph unicode="5" horiz-adv-x="1356" d="M44 142q0 8 22 9t56 -2t74 -10t78 -14t67 -11t41 -2q142 16 271 84t224 171t146 234t37 275q-38 76 -105 94t-147 2t-165 -55t-157 -76t-124 -63t-66 -16q-40 28 -51 57t-5 61t23 66t33 72q4 6 22 51t43 100t53 109t52 78q30 30 84 48t122 29t142 17t146 12t135 14 t107 22q60 20 85 -5t4 -65t-90 -80t-197 -50q-22 -2 -79 -5t-120 -8t-119 -8t-78 -5q-22 -18 -50 -48t-51 -64t-36 -72t-5 -70q58 -12 116 0t117 29t120 29t127 -2q128 -28 191 -94t73 -155t-27 -191t-109 -201t-173 -187t-218 -147t-245 -81t-254 10q-18 4 -42 12t-46 22 t-37 33t-15 47z" />
<glyph unicode="6" horiz-adv-x="904" d="M45 355q-3 53 2 105t25 106q8 22 36 73t69 118t92 143t105 149t108 135t101 100t83 45t54 -31q6 -10 6 -42t-6 -42q-38 -36 -97 -90t-123 -121t-126 -141t-109 -150t-71 -150t-10 -138h28q204 108 336 142t205 16t92 -75t-2 -129t-77 -148t-134 -132t-172 -79t-192 9 q-24 8 -52 17t-55 22t-51 31t-38 44q-8 54 -16 107t-11 106zM226 208q-6 -38 42 -66q54 -32 117 -22t123 45t111 85t80 99t30 86t-37 45q-26 6 -80 -9t-118 -43t-125 -65t-99 -77t-44 -78z" />
<glyph unicode="7" horiz-adv-x="1200" d="M67 1161q25 29 97 57t178 54t222 46t229 34t200 20t134 2t33 -18q-16 -34 -54 -118t-92 -195t-119 -240t-133 -253t-136 -233t-128 -181t-109 -97t-77 19q-2 4 -2 13t2 13q10 20 32 60t50 90t58 105t58 105t50 90t34 60q18 30 51 79t72 106t78 119t68 121t42 110t1 85 q-116 -30 -214 -54t-193 -39t-194 -20t-219 1q-44 30 -19 59z" />
<glyph unicode="8" horiz-adv-x="1244" d="M40 205q6 53 31 104t55 87q20 20 68 73t102 111t102 110t68 72q22 56 2 110t-54 107t-67 108t-35 114t43 125t167 142q94 58 161 82t115 22t84 -28t67 -68t64 -95t75 -109q6 -8 24 -15t34 -16t26 -22t2 -33q-62 -40 -130 -89t-136 -103t-131 -113t-113 -119 q-22 -86 -6 -157t40 -132t42 -115t0 -107t-86 -107t-216 -116q-34 -14 -74 -22t-81 -9t-81 7t-76 24q-56 28 -74 76t-12 101zM154 154q0 -14 1 -26t1 -16q148 -28 242 4t145 94t66 140t6 143t-35 104t-58 23q-26 -24 -82 -74t-116 -110t-109 -124t-59 -114q0 -6 -1 -18 t-1 -26zM445 1163q-9 -85 51 -203q2 -6 10 -19t17 -26t16 -25t11 -14q4 -4 15 -4t15 4q16 12 56 44l85 68t85 69t56 45q6 6 16 15t19 18l16 16t7 9v224q0 28 -48 40t-115 4t-138 -38t-118 -86t-56 -141z" />
<glyph unicode="9" horiz-adv-x="974" d="M42 849q-8 53 18 114t79 122t125 111t156 82t171 34t172 -33t157 -119q4 -14 -17 -76t-58 -152t-87 -199t-105 -218t-110 -208t-104 -169t-86 -103t-57 -7q-8 44 -7 79t10 67t23 65t32 73l254 508v28q-44 14 -85 5t-82 -29t-82 -44t-83 -39t-86 -13t-90 34q-50 34 -58 87 zM156 876q74 -18 160 2t168 64t152 102t114 116q-24 50 -71 59t-103 -8t-117 -54t-116 -79t-97 -82t-62 -64q-4 -4 -15 -27t-13 -29z" />
<glyph unicode=":" horiz-adv-x="312" d="M67 114q15 22 43 29t58 0t42 -31q22 -42 9 -71t-40 -38t-59 4t-50 51q-18 34 -3 56zM69 789q-3 29 11 50t41 26t61 -17q32 -22 36 -55t-11 -57t-45 -29t-64 29q-26 24 -29 53z" />
<glyph unicode=";" horiz-adv-x="438" d="M-44 -398q0 10 4 12q72 90 119 162t73 147t33 162t-1 207q12 8 27 1t28 -19t22 -24l9 -12q46 -60 48 -149t-22 -181t-68 -176t-94 -136t-97 -60t-77 52q-4 4 -4 14zM96 887q0 23 4 29h112v-114q-18 -10 -35 -7t-32 12t-27 23t-18 28q-4 6 -4 29z" />
<glyph unicode="&#x3c;" horiz-adv-x="1160" d="M32 818q4 40 54 86q22 20 68 62t105 95t123 111t123 111t105 95t68 62q12 4 35 0t41 -16t24 -29t-14 -39l-536 -536q-18 -18 -8 -44t36 -57t62 -62t70 -56t61 -43l33 -22q22 -16 68 -47t104 -70t123 -82t123 -82t105 -69t69 -44q26 -32 30 -63t-8 -51t-40 -22t-66 22 q-202 132 -407 268t-385 298q-40 36 -81 72t-65 74t-20 78z" />
<glyph unicode="=" d="M58 58q-16 22 19 41t95 34t136 27t143 20t116 13t55 5q20 0 73 1t111 1t110 -1t74 -1q14 -8 25 -23t3 -33q-94 -12 -215 -32t-241 -41t-225 -40t-167 -29q-22 -4 -37 -3t-27 7t-23 19t-25 35zM198 620q16 30 72 55t134 40t166 21t168 -1t140 -28t82 -57q-10 -12 -68 -25 t-139 -24t-175 -18t-175 -6t-138 10t-67 33z" />
<glyph unicode="&#x3e;" horiz-adv-x="862" d="M70 1384q0 6 7 15t16 18t18 16t15 7q54 -42 136 -94t170 -114t168 -131t128 -143t51 -152t-61 -156q-20 -26 -58 -71t-84 -100t-95 -114t-92 -110t-76 -90t-45 -53l-22 -22l-34 -34t-35 -34t-23 -22q-4 2 -12 10l-17 17t-17 18t-10 13q-24 48 10 108t99 127t146 139 t148 144t108 141t25 131q-2 6 -46 42t-109 88t-139 113t-136 119t-101 104t-33 70z" />
<glyph unicode="?" horiz-adv-x="1370" d="M160 682q-14 52 26 117t113 138t171 150t202 154t204 151t178 141t124 123t43 97t-66 64t-205 23h-678q-18 40 -3 76t61 36h706q62 0 136 -35t127 -91t66 -127t-47 -141q-76 -90 -168 -161t-191 -135t-201 -124t-195 -128t-175 -148t-142 -180q-8 -10 -20 -19t-26 -11 t-25 4t-15 26zM164 180q18 56 37 56t34 -30t22 -74t4 -75t-19 -36t-48 45q-18 26 -29 54t-1 60z" />
<glyph unicode="@" horiz-adv-x="1668" d="M59 697q21 157 79 315t146 307t191 267t214 195t218 91t202 -46t163 -216q32 -74 52 -154t20 -161t-24 -159t-76 -146q-38 -50 -87 -104t-107 -97t-123 -68t-135 -15q-28 4 -72 1t-91 -7t-88 -4t-59 10q-76 38 -101 91t-14 112t50 119t92 111t113 89t113 52t92 0t49 -66 q8 -42 0 -90t-24 -97t-34 -95t-26 -84q10 -20 24 -26t30 -3t31 11t29 18q88 58 151 122t102 139t53 163t4 196q-14 152 -77 214t-154 56t-200 -73t-213 -175t-194 -248t-144 -293t-61 -310t55 -299q52 -124 126 -180t161 -62t184 30t196 96t198 135t188 148t167 134t136 95 q14 -92 -42 -187t-156 -181t-230 -160t-264 -122t-258 -65t-210 7q-156 46 -242 146t-115 233t-8 290zM506 890q0 -32 4 -42q48 -28 82 4t58 87t38 112t18 79q-34 20 -67 -2t-60 -59t-45 -78t-24 -59q-4 -10 -4 -42z" />
<glyph unicode="A" horiz-adv-x="2118" d="M-254 -366q2 16 28 16q40 -54 104 -57h11q60 0 131 30q78 33 163 95t167 136t157 154t132 151t91 124t34 73q0 8 -21 24t-46 33t-48 32t-27 23q8 24 48 39t90 26t98 22t74 27q88 128 161 238t136 212t122 199t120 200t127 216t146 245q24 41 42 41q5 0 10 -4 q20 -17 31 -84t13 -172q1 -42 1 -86q0 -67 -2 -139q-3 -120 -9 -244t-11 -229t-9 -181q-3 -51 -3 -78q0 -14 1 -22q8 -126 12 -220t25 -173t69 -153t148 -160q-37 -12 -69 -12q-37 0 -66 17q-53 31 -87 94t-55 147t-41 162t-43 138t-63 76q-4 0 -15 1t-24 1t-26 -1t-19 -1 q-14 -4 -47 -11t-77 -18t-93 -23t-95 -24t-83 -21t-57 -15q-62 -16 -131 -79t-145 -152t-157 -194t-166 -205t-173 -186t-176 -137t-176 -58q-9 -1 -19 -1q-78 0 -155 52q-8 6 -24 24t-26 37q-8 16 -8 30v5zM1160 638q6 -2 27 -2t27 2q44 6 112 16t137 24t126 33t79 41l7 52 t17 133t21 181t21 195t17 176t9 125q-4 2 -8 2q-25 0 -64 -65q-46 -75 -117 -208t-172 -310t-239 -365v-30z" />
<glyph unicode="B" horiz-adv-x="1794" d="M50 175q0 45 23 100t53 127q6 14 28 61t52 109t62 132t62 132t51 108t29 62q28 64 28 113v12q-4 53 -12 99q-6 37 -6 74v18q2 46 46 104q6 8 31 35t54 58t54 58t31 33q14 16 72 50t143 76t188 85t206 76t198 52q67 13 120 14q22 0 42 -3q67 -8 98 -48q18 -23 18 -61 q0 -27 -9 -61q-26 -90 -72 -165t-104 -138t-121 -117t-120 -99t-105 -85t-74 -76q240 -8 375 -50t187 -109q37 -48 37 -105q0 -23 -6 -47q-21 -85 -93 -176t-186 -184t-249 -175t-280 -147t-280 -103t-250 -42h-21q-101 0 -166 36q-74 42 -104 82t-30 85zM214 226 q2 -58 37 -95t107 -44q12 -1 26 -1q67 0 166 28q266 60 462 152t324 194t190 202q58 94 58 167v9q-4 76 -72 117q-48 29 -127 29q-33 0 -71 -5q-130 -17 -322 -103t-442 -264q-28 -22 -50 -21t-42 10t-38 16t-38 -5q-48 -56 -88 -125t-61 -136q-19 -61 -19 -115v-10z M436 769q0 -17 1 -32t1 -21q20 4 83 47t151 110t193 154t211 180t202 187t167 176t107 146q25 44 25 74q0 13 -5 24q-40 6 -81 6q-73 0 -150 -18q-121 -28 -237 -83t-216 -127t-168 -140q-10 -22 -29 -67t-44 -102t-53 -120t-53 -120t-45 -102t-30 -67q-2 -4 -14 -26 t-14 -26q0 -6 -1 -21t-1 -32z" />
<glyph unicode="C" horiz-adv-x="1582" d="M12 320q-3 27 -3 55q0 70 21 147q30 108 89 223t142 232t177 228t193 212t191 184t170 144t130 93q90 54 150 54t96 -37t50 -101q13 -60 13 -126v-10q-1 -72 -15 -143t-35 -124t-45 -77t-46 -2q-2 20 5 62t18 93t22 106t15 102q1 17 1 32q0 26 -4 47q-7 32 -29 38 q-23 6 -48 6q-53 0 -116 -26q-92 -38 -195 -116t-209 -188t-205 -236t-184 -260t-144 -260t-87 -236q-19 -73 -18 -132q0 -30 4 -56q14 -78 78 -116q43 -26 114 -26q34 0 74 6q94 14 179 56t165 100t155 126t150 133t152 120t159 89q15 6 29 6q25 0 43 -20q19 -20 19 -45 q0 -13 -5 -27q-14 -42 -89 -112t-183 -147t-238 -153t-254 -131t-230 -79q-53 -12 -94.5 -12t-71.5 12q-122 48 -183 123t-73 169z" />
<glyph unicode="D" horiz-adv-x="2058" d="M58 28q-6 17 -6 32q0 19 10 35q18 29 52 47q156 78 304 131t292 107t287 121t289 171q262 152 425 288t245 253t93 214q2 20 2 39q0 74 -34 133q-43 75 -129 125t-199 74q-94 20 -199 20q-22 0 -44 -1q-130 -5 -259 -40t-247 -103t-208 -172q-2 -4 -7 -17t-9 -27t-8 -27 t-4 -15q-50 -120 -95 -216t-88 -180t-82 -162t-75 -163t-70 -185t-66 -228q-20 -6 -35 -6q-18 0 -29 9q-20 17 -22 53v11q0 32 9 73q11 48 26 93t30 82t21 53q20 56 63 149t90 192t89 191t64 150q-13 44 -13 82q0 24 5 47q14 57 50 103t85 85t99 77q142 104 307 162t337 64 q18 1 37 1q153 0 304 -45q169 -50 319 -164q120 -100 141 -217q6 -33 6 -66q0 -86 -39 -175q-54 -124 -171 -252t-272 -251t-336 -236t-362 -209t-352 -169t-305 -116t-219 -52q-17 -2 -31 -2q-56 0 -66 29z" />
<glyph unicode="E" horiz-adv-x="1864" d="M44 58q-5 5 -5 10q0 8 13 18q24 90 52 173t58 164t63 164t71 175q12 24 -5 48t-37 48t-30 49t18 53q2 2 19 7t36 9t36 8t21 6t12 9t17 16l17 17t10 12q38 68 75 121t68 105t58 110t45 136q8 30 -14 38t-49 16t-46 24q-10 9 -10 26q0 15 7 36q10 28 96 60t219 62t297 55 t329 40t316 18q27 1 52 1q118 0 204 -12q105 -14 149 -48q22 -17 22 -39q0 -23 -24 -53q-22 -6 -46 -1t-49 12t-51 13t-52 4q-100 -8 -197 -8h-39q-116 2 -230 2t-229 -9t-231 -41q-80 -22 -142 -79t-119 -143t-114 -199t-125 -247q7 -2 17 -2q30 0 87 14q76 18 175 43 t208 52t206 38q48 6 90.5 5.5t79.5 -5.5q73 -11 97 -59q2 -4 2 -14t-2 -14q-132 -20 -273 -36t-280 -40t-272 -65t-249 -113q-96 -168 -171 -345t-133 -361q72 26 168 50t185 43t156 32t79 15q212 34 409 53q113 11 232 11q87 0 177 -6q18 -4 25 -20t9 -34t0 -35t-4 -25 q-78 4 -156 4q-194 0 -385 -25q-267 -35 -535 -93q-42 -10 -103 -34t-125 -44t-123 -27q-13 -1 -24 -1q-43 0 -75 20q-10 4 -17 11t-11 21z" />
<glyph unicode="F" horiz-adv-x="1860" d="M38 99q6 37 21 74t34 72t33 67q12 24 40 88t60 136t60 136t40 90q14 32 -4 55t-40 45t-33 45t19 53q18 18 46 23t57 9t55 14t40 38l284 542q-14 50 -14 88q0 12 2 24q6 44 30 77t64 61t88 62q128 20 254 38t252 30t254 16q51 2 103 2q77 0 155 -4q14 -2 37 -21t38 -43 q14 -22 14 -43q0 -25 -35 -33q-4 0 -16 4t-26 9t-27 10t-15 5q-200 0 -347 -5t-256 -21t-187 -48t-140 -89t-116 -142t-112 -207l-17 -30t-35 -71t-30 -84q-7 -26 -7 -45q0 -13 3 -24q60 -10 121 -10q34 0 68 3q95 9 191 32t193 53t194 54t195 37q51 7 102 7l94 -6v-58 q0 -4 -54 -14t-143 -27t-205 -41t-241 -55t-249 -69t-229 -84t-182 -101t-109 -117q-82 -162 -153 -334t-131 -344q-16 -22 -43 -28q-4 -1 -8 -1q-21 0 -31 29q-8 23 -8 47q0 12 2 24z" />
<glyph unicode="G" horiz-adv-x="1520" d="M10 493q14 141 74 294t149 301t200 281t228 235t231 163t208 65q21 6 42 6l50 -8q46 -14 83 -46t63 -74t32 -84q2 -11 2 -21q0 -30 -13 -56q-17 -35 -63 -53q-10 -6 -25 -6t-15 6v196q0 6 -12 12t-29 10t-34 6t-27 0q-246 -62 -423 -210t-293 -350q-166 -292 -243 -487 t-86 -311q-1 -18 -1 -34q0 -89 42 -128q45 -41 119 -41h17q86 5 198 51t228 116t226 153t192 161t127 142q33 47 33 76q0 10 -4 18q-13 2 -28 2q-28 0 -60 -8q-48 -12 -82 -22l-84 -28t-128 -42t-128 -43t-84 -29q-36 -12 -59 7t-31 46t-1 55t35 34q30 6 96 28t152 53 t186 65t197 64t184 51t146 23h10q51 0 75 -18q13 -10 13 -27.5t-13 -42.5q-24 -24 -83 -85t-127 -129t-128 -127t-86 -83q-6 -6 -30 -26t-58 -49t-74 -62t-78 -66t-72 -61t-56 -44q-32 -28 -83 -70t-112 -86t-128 -83t-135 -61t-132 -22t-116 38q-110 82 -149 203 q-29 89 -29 189q0 36 4 73z" />
<glyph unicode="H" horiz-adv-x="1772" d="M67 148q7 82 33 185t65 218t79 218t74 185t50 120q16 40 45 107t63 150t72 172t72 172t62 150t46 107q25 8 42 8q20 0 30 -11q12 -15 12 -43q0 -13 -2 -28q-8 -50 -35 -121t-64 -152t-76 -166t-70 -162t-47 -140q-11 -42 -11 -72q0 -15 3 -27q24 -3 52 -3q24 0 51 2 q59 5 121 15t121 22t105 20q150 26 260 65t191 94t140 127t109 165t98 205t108 248q17 36 33 36q3 0 5 -1q18 -7 30 -35t16 -64q2 -18 2 -30.5t-2 -19.5q-2 -6 -15 -31t-27 -54t-27 -53t-15 -30q-4 -10 -12 -34l-17 -51t-18 -52t-11 -33q10 -4 32 -26t26 -32q1 -8 1 -16 q0 -37 -29 -82q-36 -54 -87 -111t-100 -112t-67 -103q-102 -250 -176 -499t-108 -517q-8 -14 -23 -26q-8 -7 -17 -7q-8 0 -16 5q-1 12 -1 26q0 49 11 125q14 97 37 210t50 231t50 216t38 163t13 73q-32 6 -77 6q-27 0 -57 -2q-82 -6 -180 -22t-204 -39t-204 -48t-183 -49 t-139 -42q-44 -94 -72 -208t-55 -229t-63 -222t-94 -189q-4 2 -15 13t-13 15q-20 30 -20 87q0 16 1 33z" />
<glyph unicode="I" horiz-adv-x="550" d="M27 134q3 32 10 64t13 56t8 28l564 1470q12 30 22 34q2 1 5 1q7 0 14 -10q9 -13 15 -38t9 -54q2 -17 2 -34q0 -11 -1 -23q-2 -28 -10 -46q-80 -190 -161 -380t-156 -384t-139 -391t-110 -399q-15 -10 -29 -10h-4q-15 2 -25 13t-17 26t-9 27q-2 10 -2 25q0 11 1 25z" />
<glyph unicode="J" horiz-adv-x="1554" d="M7 362q-2 15 -2 29q0 28 9 50q14 33 58 39q2 -34 8 -89t23 -108t50 -94t89 -47q22 -1 44 -1q96 0 175 29q97 36 174 105t136 164t106 204t84 226t68 230t59 216t58 183q11 42 11 71q0 19 -5 33q-12 34 -45 43q-16 4 -35 4q-22 0 -49 -5q-51 -10 -109 -30t-121 -43 t-120 -39t-104 -20q-9 -1 -16 -1q-36 0 -59 15q-39 26 -39 51q0 9 4 17q17 34 83 65t169 59t222 53t243 45t232 36t189 26t113 14q42 6 118 15l152 18t137 16t73 7q46 4 118 6t140 2t117 -2t49 -6l28 -84q-66 -4 -182 -7t-254 -11t-284 -22t-274 -38t-226 -60t-136 -88 q-20 -58 -48 -171t-68 -257t-91 -305t-115 -314t-142 -284t-171 -214t-202 -106q-29 -6 -59 -6q-84 0 -178 47q-26 12 -59 49t-63 85t-53 101t-30 99z" />
<glyph unicode="K" horiz-adv-x="1988" d="M48 0q-1 5 -1 12q0 26 13 73q16 59 47 142t69 175t79 184t77 169t61 131t31 70q60 142 123 261t125 234t119 235t109 264q16 10 30 10q5 0 10 -1q18 -5 30 -21t17 -36t-1 -36q-16 -32 -47 -95t-65 -132t-64 -133t-46 -96q-2 -6 -8 -20t-11 -31t-9 -34t0 -29q26 -6 57 -6 q53 0 122 17q109 27 236 80t263 122t259 137t225 126t164 88q40 20 53 17q9 -2 9 -12q0 -4 -1 -9q-5 -18 -24 -46t-45 -57t-54 -53t-50 -36q-24 -14 -75 -40t-105 -53t-100 -49t-60 -28q-66 -30 -169 -67t-215 -80t-220 -91t-186 -100l-12 -9t-24 -22t-20 -28t0 -27 q38 -24 116 -90t175 -159t206 -206t211 -228t188 -225t137 -199t58 -148q1 -7 1 -13q0 -48 -48 -60q-4 2 -14 13t-14 15q-78 126 -157 232t-164 205t-180 198t-205 213q-158 164 -261 245t-172 92q-12 2 -24 2q-53 0 -90 -41q-45 -50 -87 -149t-90 -239t-122 -306 q-12 -26 -26 -58t-31 -63t-38 -59t-47 -46q-34 -22 -38 4z" />
<glyph unicode="L" horiz-adv-x="1752" d="M40 110q2 26 12 56t22 58q30 66 82 142q78 152 142 274t120 229t106 207t101 209t106 235t121 286q6 10 18 28t27 29q11 8 24 8q5 0 9 -1q18 -4 36 -36q13 -27 13 -64q0 -33 -10 -74q-21 -88 -73 -201t-126 -244t-153 -266t-157 -267t-136 -248t-90 -209 q-24 -71 -24 -120q0 -15 2 -29q79 -7 159 -8q99 0 199 12q180 20 360 48t361 51q119 15 237 15q62 0 124 -4q32 2 55 -25q12 -14 12 -30q0 -14 -9 -29q-6 0 -22 1t-34 1t-34 -1t-22 -1q-92 -8 -208 -25t-244 -37t-263 -40t-267 -33t-257 -16q-25 -1 -49 -1q-97 0 -184 10 q-4 0 -25 11t-29 17q-20 12 -27 34q-5 17 -5 37v11z" />
<glyph unicode="M" horiz-adv-x="2534" d="M85 113q9 71 48 182t102 252t137 292t152 300t147 277t122 225t79 141q39 -14 71 -14q11 0 21 2q40 6 75 26t69 48t76 52q80 48 130 48q6 0 12 -1q52 -7 76 -56t25 -130v-12q0 -76 -12 -163q-13 -94 -34 -193t-41 -182t-33 -142q-11 -51 -11 -70v-5q20 -10 33 3t23 25 q8 12 37 47t66 81t80 99t81 99t66 81t38 47q218 172 368 255t244 93q15 2 28 2q73 0 109 -46q43 -54 46 -156v-18q0 -96 -29 -224q-32 -140 -88 -302q-8 -22 -30 -94t-51 -168t-61 -204t-61 -204t-51 -168t-28 -94q0 -2 -6 -32t-16 -71t-27 -88t-39 -84t-50 -57 q-18 -12 -37 -12q-12 0 -25 4q-4 2 -14 12t-12 16q-2 2 -2 14t2 16l10 30t17 53t18 54t11 31q48 154 88 286t76 253t68 236t65 237t67 256t74 292q2 8 2 29t-2 27q-33 11 -68 11q-43 0 -89 -17q-83 -30 -170 -97t-177 -162t-175 -198t-165 -205t-147 -185t-121 -137t-88 -62 q-10 -2 -25 0t-29 7t-23 11t-9 12v170q6 28 20 88t30 135t35 158t35 158t30 134t20 89q12 58 24 112q7 32 7 67q0 23 -3 47q-21 7 -42 7q-41 0 -85 -25q-67 -38 -137 -118t-142 -193t-143 -244t-140 -271t-132 -274t-120 -252t-104 -206t-83 -136q-31 -41 -51 -41q-3 0 -7 1 q-27 9 -27 56q0 12 2 27z" />
<glyph unicode="N" horiz-adv-x="2074" d="M26 28q0 22 2 30q16 78 60 172t96 187t103 177t81 142q14 30 46 91t70 139t81 164t83 164t70 140t46 92q53 55 93 55q4 0 8 -1q43 -6 78 -61t62 -148t53 -208t52 -241t57 -245t70 -223t91 -172q8 -4 17 -4q27 0 61 36q46 48 101 139t116 215t122 259t119 271t106 253 t85 204t57 123q17 31 35 31h1q18 -1 32 -20t20 -48q3 -12 3 -24q0 -15 -5 -27q-80 -218 -150 -392t-144 -337t-158 -332t-192 -375q-40 -48 -78 -77t-76 -32h-8q-34 0 -69 23q-39 26 -79 86q-82 146 -130 275t-81 256t-60 259t-67 284q-16 10 -51 -26t-81 -104t-100 -160 t-109 -194t-109 -204t-99 -191t-79 -155t-50 -96q-12 -22 -32 -56t-38 -65t-32 -54l-14 -23h-84q-2 6 -2 28z" />
<glyph unicode="O" horiz-adv-x="1318" d="M49 377q9 73 34 146t59 141t70 126q12 20 38 60t59 90t70 105t71 105t60 90t40 58q24 154 87 257t148 160t182 69q28 4 56 4q67 0 131 -21q90 -29 164 -96t113 -169q34 -88 34 -202q0 -18 -1 -36q-6 -136 -75 -301t-210 -357t-375 -408q-50 -48 -118 -91t-144 -71 t-154 -33q-11 -1 -22 -1q-66 0 -124 26q-84 36 -128 90t-59 120q-9 41 -9 85q0 27 3 54zM156 226q26 -114 95 -141q29 -11 63 -12q46 0 101 22q95 37 208 128t225 212t215 263t178 282t115 268q30 97 30 173q0 25 -3 48q-13 93 -90 141q-54 34 -148 34q-39 0 -85 -6 q-56 -50 -151 -146t-203 -219t-216 -264t-190 -281t-124 -270q-28 -85 -27 -159q-1 -38 7 -73z" />
<glyph unicode="P" horiz-adv-x="1520" d="M55 169q19 69 52 144t71 145t56 114q8 14 11 25t7 23t10 28t18 42q16 32 49 101t75 155t88 181t88 182t75 155t49 102v56q-18 3 -35 3q-26 0 -51 -7q-42 -12 -81 -35t-75 -52t-68 -51q-34 8 -39 32t5 52t29 52t33 34q262 162 559 217q162 30 326 30q137 0 275 -21 q184 -94 252 -198q53 -81 53 -164q0 -23 -4 -47q-19 -107 -110 -212t-225 -201t-295 -178t-320 -143t-301 -94t-238 -33q-48 -76 -77 -125t-47 -85t-29 -67t-23 -70t-29 -94t-47 -137l-28 -28q-10 4 -31 26t-25 32q-12 23 -12 53q0 26 9 58zM480 748q45 -8 93 -8 q64 0 131 14q118 24 234 69t223 101t193 104q210 118 314 229t127 207q8 33 8 63q0 58 -29 108q-44 75 -130 121t-200 58q-33 3 -65 3q-82 0 -165 -21q-116 -30 -222 -107t-174 -209q-26 -50 -61 -118t-72 -143t-74 -149t-66 -133t-47 -96t-18 -39v-54z" />
<glyph unicode="Q" horiz-adv-x="1482" d="M168 328v11q0 125 44 259q46 140 128 283t173 273t179 237t146 175q38 46 85 106t101 117t113 104t125 69q6 2 12 2q13 0 26 -10q18 -14 33 -35t25 -42t16 -27q114 -136 160 -297q38 -132 38 -269q0 -30 -2 -60q-10 -168 -69 -334t-153 -310q-6 -10 -26 -36t-46 -61 t-56 -74t-56 -74t-46 -61t-26 -34q-42 -60 -48 -120q-2 -17 -2 -34q0 -43 11 -85q15 -59 43 -116t51 -112t35 -108q5 -23 5 -45q0 -29 -9 -58q-10 -4 -17 -4q-11 0 -18 7q-13 13 -23 25q-32 42 -55 109t-46 136t-52 126t-73 79q-16 8 -54 -5t-91 -32t-117 -35 q-51 -13 -104 -13q-14 0 -27 1q-67 4 -133 35t-122 107q-76 100 -78 230zM302 156q4 -6 15 -19t25 -26t27 -25t19 -16q95 -63 171 -63q9 0 17 1q82 8 144 66t105 151t70 192t40 189t15 142q4 2 20 3t34 -2t32 -9t14 -20v-282q86 62 158 155t126 199t87 219t39 217 q4 65 4 122q0 126 -19 208q-27 118 -81 160q-33 26 -75 26q-27 0 -56 -10q-77 -26 -165 -101t-182 -188t-183 -248t-166 -282t-133 -286t-84 -262q-21 -91 -21 -162q0 -26 3 -49z" />
<glyph unicode="R" horiz-adv-x="1718" d="M44 28q-6 17 -6 40q0 35 13 83q21 81 66 185t106 224t126 240t128 235t110 208t74 156q21 49 21 72q0 7 -2 11q-11 4 -23 4q-20 0 -41 -11l-68 -34t-66 -21h-6q-28 0 -50 34q-12 18 -8 35t14 32t24 27t24 18q286 186 542 291t459 143q129 24 231 24q60 0 111 -8 q139 -22 192 -91q28 -37 28 -85q0 -42 -21 -93q-46 -109 -213 -244t-468 -289t-757 -314q-9 -15 -9 -33q0 -27 23 -58q38 -51 115 -108t180 -120t209 -127t203 -125t160 -117t81 -103q5 -12 5 -23q0 -32 -39 -58q-2 -2 -31 19t-71 55t-91 73t-92 75t-74 61t-37 29 q-150 96 -301 188t-293 208q-8 3 -17 3q-26 0 -53 -27q-36 -36 -71 -99t-69 -145t-66 -164t-61 -154t-55 -116t-48 -50q-2 -1 -5 -1q-19 0 -33 45zM640 1070q25 -8 58 -8q39 0 90 11q94 21 208 68t237 114t236 141t207 149t147 139q57 69 57 113q0 40 -62 53h-61 q-231 0 -399 -27q-190 -31 -326 -116t-228 -232t-164 -375v-30z" />
<glyph unicode="S" horiz-adv-x="1536" d="M26 170q-4 8 -4 16q0 22 36 40q28 -26 76 -61t94 -53q74 -3 147 -3q61 0 120 2q131 5 254 32t240 81t225 142q124 102 162 188q23 53 23 101q0 30 -9 59q-24 74 -98 138t-174 120t-215 105t-221 96t-190 92t-124 91q-2 7 -2 14q0 37 44 85q52 57 144 119t213 122t247 111 t245 85t208 43q26 3 48 3q55 0 90 -16q37 -17 37 -56q0 -13 -4 -28q-18 -4 -91 -23t-176 -50t-225 -71t-239 -84t-216 -89t-158 -86q-64 -45 -65 -82q0 -33 68 -55q292 -88 483 -185t297 -198t138 -202q18 -56 17 -109q0 -44 -11 -86q-26 -94 -100 -179t-178 -154t-229 -118 t-253 -72q-98 -18 -193 -18q-29 0 -58 2q-123 7 -221 49q-12 4 -58 27t-87 53t-57 62z" />
<glyph unicode="T" horiz-adv-x="1394" d="M44 1272q16 34 127 76t282 88t383 93t432 90t429 78t374 58t267 31q37 3 61 3q42 0 45 -9q5 -15 5 -32q0 -8 -1 -17q-4 -27 -32 -35q-124 -20 -266 -44t-288 -50t-287 -53t-261 -51q-76 -16 -149 -91t-141 -186t-130 -248t-117 -276t-103 -269t-88 -229t-70 -154 q-25 -47 -44 -47q-3 0 -6 2q-6 4 -16 14t-12 14q-8 30 -8 65q0 37 9 78q17 81 47 164t65 159t57 126q12 28 39 86t60 131t69 153t70 152t60 129t40 85q-14 3 -32 3q-36 0 -89 -11q-79 -16 -174 -39t-196 -48t-186 -37q-51 -7 -94 -7q-28 0 -53 3q-62 8 -78 52z" />
<glyph unicode="U" horiz-adv-x="1520" d="M82 471q10 139 52 293t101 303t125 284t123 237t96 162q38 58 43 58q16 0 28 -27q8 -17 9 -36t-2 -40t-5 -37q0 -4 -5 -12t-10 -18t-10 -18t-5 -10q-194 -426 -292 -715t-120 -462q-7 -59 -7 -105q0 -91 28 -137q36 -57 103 -57q14 0 29 2q89 14 213 98t262 217t282 302 t272 354t230 373t158 358q4 4 14 15t14 11q55 -37 55 -116q0 -81 -45 -195q-44 -111 -126 -243t-187 -272t-228 -280t-249 -265t-249 -227t-230 -168t-190 -87q-30 -7 -55 -7q-45 0 -76 24q-92 72 -124 188q-24 88 -24 190q0 32 2 65z" />
<glyph unicode="V" horiz-adv-x="1400" d="M66 887q4 167 28 313t71 257t117 153q10 -7 10 -48v-15q-2 -55 -13 -141t-27 -195t-32 -228t-29 -239t-17 -225q-1 -38 -2 -74q0 -62 5 -116q7 -85 32 -132t71 -51h6q45 0 112 52q102 80 202 171t196 187t188 191t176 185q206 218 394 442t368 464q24 32 47 34h5 q20 0 35 -15q17 -17 25 -46q5 -17 5 -33q0 -13 -3 -26q-18 -20 -56 -61t-86 -94t-100 -112t-99 -112t-85 -96t-56 -63q-44 -50 -116 -139t-163 -197t-194 -227t-208 -228t-208 -199t-193 -142t-161 -57h-10q-64 0 -103 59q-46 68 -77 197t-45 284q-11 121 -11 248q0 37 1 74 z" />
<glyph unicode="W" horiz-adv-x="1754" d="M44 440q-1 49 -1 100q0 102 5 215q8 169 24 337t39 323t50 271t58 181q27 56 54 56q4 0 9 -1q6 -4 17 -14t13 -16v-15q0 -30 -5 -89q-7 -76 -20 -182t-31 -234t-35 -258t-32 -254t-23 -223t-8 -164t12 -77l28 -30q38 16 78 90t82 181t85 234t86 251t86 234t85 180t82 89 q10 5 20 5q29 0 57 -43q37 -57 70 -200t61 -397q2 -10 8 -50t18 -98t27 -126t34 -131t39 -116t42 -80t43 -22t43 57q8 20 34 86t61 153t74 185t74 185t61 152t36 87q10 24 33 89t57 147t76 170t90 156t99 106q35 26 70 26q17 0 33 -6q4 0 15 -11t11 -17q-154 -198 -255 -399 t-178 -409t-146 -424t-159 -446q-38 -98 -79 -112q-10 -3 -20 -3q-31 0 -61 32q-40 43 -79 131t-74 197t-65 225t-52 214t-36 166t-16 82q-4 18 -9 47t-9 57q-6 32 -10 66h-28q-2 0 -15 -24t-33 -63t-44 -88t-49 -99t-47 -97t-38 -81q-8 -20 -26 -77t-42 -136t-54 -171 t-63 -180t-68 -164t-69 -124t-67 -58q-6 -2 -12 -2q-26 0 -51 36q-32 48 -49 157t-21 255z" />
<glyph unicode="X" horiz-adv-x="1342" d="M61 101q3 35 25 69q30 50 86 114t121 135t130 145t114 145t74 135q16 41 16 77q0 20 -5 39q-10 20 -33 68t-50 102t-52 102t-35 66q-4 8 -21 37t-36 62t-36 63t-19 38q-4 6 -4 27t4 29q9 7 20 7q19 0 41 -23q35 -36 74 -100t80 -142t79 -144t72 -107q25 -31 45 -31 q7 0 13 4q4 6 16 22t26 34t26 34t16 22q16 24 48 85t77 123t99 104q39 30 82 30q16 0 34 -4q32 -8 32 -35t-22 -66t-61 -88t-84 -101t-90 -106t-79 -101t-53 -87q-13 -28 -13 -48q0 -9 2 -16q16 -40 59 -109t97 -151t111 -170t102 -166t69 -138q17 -42 17 -68q0 -11 -3 -18 q-4 -2 -14 -2t-14 2t-16 13t-25 24t-25 27t-18 20q-16 20 -53 76t-82 128t-96 149t-96 140t-79 100t-48 29q-156 -146 -280 -300t-256 -322q-36 -46 -62 -51t-38 14q-10 15 -10 41q0 6 1 13z" />
<glyph unicode="Y" horiz-adv-x="1004" d="M87 1689q7 19 53 -3q36 -32 87 -104t108 -161t116 -183t109 -168t88 -117q30 -34 46 -34q5 0 8 3q20 38 52 110l72 162t85 190t90 192t88 170t79 124t62 53q3 1 6 1q22 0 32 -42q2 -7 2 -17q0 -38 -26 -113q-32 -94 -91 -226t-140 -293t-170 -333t-178 -346t-166 -333 t-135 -291t-84 -222q-8 -26 -24 -49t-37 -33q-10 -5 -20 -5l-22 6q-21 11 -37 53q-17 43 -17 89q0 33 9 69q22 84 73 175t118 189t127 201t101 212q39 104 39 212v11q-10 24 -44 77t-82 125t-104 153t-107 161t-92 150t-61 118q-15 36 -15 55q0 7 2 12z" />
<glyph unicode="Z" horiz-adv-x="2106" d="M72 28q-23 17 -23 45q0 29 24 69q47 80 153 191t257 244t312 273t317 279t274 261t181 219q46 70 46 120q0 19 -7 35q-4 0 -58 -10t-136 -24t-184 -30t-202 -27t-190 -16q-32 -2 -60 -2q-50 0 -87 6q-57 9 -74 33q-5 6 -5 15q0 22 34 55q16 -2 35 -2q47 0 112 11 q91 15 200 40t226 52t222 44t189 18h5q80 0 123 -29q40 -28 41 -85q0 -5 -1 -11q-4 -66 -78 -180q-130 -204 -286 -363t-325 -301t-346 -282t-351 -310q-2 -2 -27 -28t-53 -62t-49 -73q-15 -27 -15 -47q0 -8 2 -14q8 -2 21 -2q34 0 106 15q99 21 241 55t313 76t340 79 t324 62t264 25t159 -32q28 -18 28 -51q0 -25 -16 -57q-62 -4 -177 -20t-261 -40t-313 -53t-333 -57t-321 -54t-277 -42t-201 -22q-30 -2 -50 -2q-34 0 -43 6z" />
<glyph unicode="[" horiz-adv-x="1186" d="M84 -140q-4 30 1 126t15 231t26 299t38 331t49 326t58 286t67 209t74 94q6 2 35 6t62 8t62 8t37 6q16 4 50 15t76 24t88 29t87 30t74 26t49 18q18 4 48 -2t50 -19t21 -30t-35 -35q-190 -54 -315 -102t-205 -107t-125 -137t-75 -192t-53 -275t-61 -383q-18 -60 -31 -161 t-21 -210t-9 -211t3 -166l850 42q24 -36 -4 -59t-71 -35t-83 -16t-42 -4q-96 -14 -175 -22t-155 -11t-159 -1t-189 6q-4 0 -16 4t-26 8t-26 9t-16 7t-15 14t-13 16z" />
<glyph unicode="\" horiz-adv-x="820" d="M50 1290q20 66 45 65t57 -50t71 -139t85 -202t98 -238t112 -248t128 -232t144 -188q-28 -42 -55 -56t-57 26q-68 66 -135 164t-129 213t-119 238t-104 242t-83 223t-58 182z" />
<glyph unicode="]" horiz-adv-x="1116" d="M32 1752q-10 16 26 34t102 36t154 32t182 22t186 7t165 -15t121 -42t52 -74q10 -96 8 -242t-11 -316t-21 -354t-19 -354t-6 -316t17 -242q0 -8 3 -25t1 -35t-8 -34t-24 -20q-60 8 -134 -3t-153 -28t-157 -34t-146 -22t-121 7t-81 54q-16 22 26 45t114 45t160 41t165 33 t130 23t55 9q-2 88 2 227t13 303t19 341t18 341t11 302t-3 224q-36 2 -106 -6t-156 -17t-178 -17t-174 -5t-144 20t-88 55z" />
<glyph unicode="^" horiz-adv-x="650" d="M80 1018q12 22 40 78t60 119t60 120t38 79q56 118 103 150t84 5t65 -98t45 -158t23 -175t1 -149t-22 -82t-45 27q-2 4 -11 39t-21 82t-26 101t-29 96t-29 66t-24 12q-6 -12 -22 -49t-37 -85t-47 -98t-55 -87t-60 -54t-63 5q-12 8 -25 23t-3 33z" />
<glyph unicode="_" horiz-adv-x="1568" d="M44 58q2 8 64 21t163 27t230 29t265 27t266 19t234 6t171 -11t75 -34q4 -6 4 -28t-4 -30q-46 -4 -144 -11t-220 -15t-258 -17t-258 -17t-220 -15t-144 -9q-62 -4 -102 -2t-94 30q-4 2 -15 14t-13 16z" />
<glyph unicode="`" horiz-adv-x="424" d="M114 1253q-14 33 0 107q54 4 110 -33t102 -90t75 -108t31 -89t-29 -33t-107 63q-34 60 -72 84t-67 45t-43 54z" />
<glyph unicode="a" horiz-adv-x="1754" d="M75 206q-1 17 -1 34q0 85 28 185q34 121 101 255t154 255t189 217t205 143q79 36 156 36q23 0 45 -3q98 -14 178 -114q50 -62 60 -126q4 -28 5 -56q0 -37 -8 -74q-13 -66 -40 -134t-53 -138t-42 -143q-10 -45 -10 -90q0 -28 4 -57q10 -72 54 -99q37 -23 90 -23q10 0 20 1 q66 5 146 34t162 71t160 89t138 87t97 67l37 27q26 5 43 5q30 0 36 -15q2 -5 2 -10q0 -23 -29 -59q-36 -45 -109 -104t-166 -114t-198 -100t-205 -62q-47 -8 -92 -8q-50 0 -96 10q-88 19 -146 89q-26 30 -41 61t-43 53q-38 -36 -90 -92t-114 -112t-131 -106t-141 -76 q-55 -20 -111 -20q-17 0 -35 2q-74 8 -142 66q-60 50 -67 148zM170 142q16 -60 66 -70q13 -3 27 -3q41 0 91 22q68 29 149 92t160 152t151 197t123 227t75 242q14 70 14 140q0 52 -8 103q-30 24 -69 24q-18 0 -38 -5q-63 -17 -136 -71t-150 -138t-149 -183t-135 -206 t-106 -205t-62 -182q-10 -46 -10 -82q0 -30 7 -54z" />
<glyph unicode="b" horiz-adv-x="1370" d="M40 98q0 10 4 14q32 64 73 170t85 233t91 263t93 262t91 231t85 169t73 76q6 2 11 2q26 0 46 -50q16 -40 16 -81q0 -19 -3 -38q-11 -61 -39 -125t-67 -129t-72 -131t-52 -131q-12 -43 -12 -84q0 -22 3 -43q72 18 127 67t109 105t111 103t133 63q48 10 90 10q59 0 106 -20 q80 -34 120 -104q37 -65 37 -154v-14q-3 -98 -51 -202t-143 -205t-241 -177t-343 -119q-154 -34 -342 -34q-52 0 -107 3q-4 6 -15 28t-13 28q-4 4 -4 14zM264 183q0 -13 1 -25t3 -16q53 -8 106 -8q60 0 119 10q113 18 218 63t195 114t153 159t95 197q23 78 23 163 q0 32 -3 64q-2 6 -14 16t-16 12q-25 4 -51 4q-58 0 -121 -19q-90 -27 -180 -81t-173 -129t-153 -157t-122 -166t-76 -158q-2 -6 -3 -18t-1 -25z" />
<glyph unicode="c" horiz-adv-x="1398" d="M65 363q19 113 86 240t159 242t195 208t193 140q74 39 131 39q12 0 24 -2q65 -10 81 -100q2 -11 2 -22q0 -31 -12 -66q-16 -48 -44 -92t-64 -80t-69 -54t-60 -12t-35 44q30 52 67 101t73 95q-9 18 -31 18q-11 0 -26 -5q-43 -15 -102 -60t-126 -113t-129 -148t-111 -167 t-71 -167q-15 -53 -15 -101q0 -24 4 -47q11 -68 71 -112q17 -1 35 -1q69 0 154 18q107 23 220 60t224 82t202 82t155 58q43 14 67 14q11 0 17 -3q25 -13 25 -32q0 -8 -4 -18q-15 -32 -68 -71t-136 -81t-180 -81t-201 -72t-201 -54t-178 -26q-19 -1 -37 -1q-56 0 -94 12 q-128 42 -169 132q-28 62 -28 134q0 33 6 69z" />
<glyph unicode="d" horiz-adv-x="1360" d="M11 193q-7 29 -7 63q0 43 12 94q22 90 78 181t143 173t202 136t253 68q32 3 66 3q110 0 232 -35l28 28l338 678q66 -10 79 -59q6 -24 6 -50q0 -28 -7 -59q-14 -60 -40 -117t-38 -83q-6 -14 -28 -57t-51 -101t-62 -123t-62 -124t-51 -102t-28 -57q-22 -46 -30 -95t-9 -100 v-20q0 -41 3 -82q4 -51 8 -99q10 -46 39 -74t63 -51l68 -46t56 -55q-10 -32 -40 -33h-5q-28 0 -58 11q-33 12 -61 29t-34 23q-46 32 -79 73t-56 88t-38 99t-25 106h-28q-202 -166 -352 -248t-252 -100q-35 -6 -65 -6q-57 0 -94 22q-57 34 -74 101zM136 361q-11 -41 -10 -84 q0 -53 16 -107q7 -29 41 -29h7q40 3 99 31t132 77t145 106t140 119t116 119t73 101q16 28 16 48q0 11 -5 20q-78 42 -173 42t-189 -33t-180 -95t-145 -142t-83 -173z" />
<glyph unicode="e" horiz-adv-x="1088" d="M45 349q9 69 27 131q76 80 170 183t199 204t219 187t230 132q18 7 33 7q18 0 31 -10q24 -19 34 -58q9 -35 9 -82v-10q-1 -53 -9 -102t-20 -90t-26 -55q-22 -26 -77 -60t-128 -73t-155 -82t-157 -87t-136 -90t-92 -90q-25 -36 -25 -70q0 -8 1 -15q7 -41 69 -77 q29 -3 62 -3q64 0 144 12q122 19 248 51t243 66t193 52l30 -28q-36 -48 -106 -91t-157 -79t-186 -61t-192 -39q-87 -13 -163 -13h-11q-81 1 -135 19q-76 26 -114 76t-50 113q-7 36 -7 74q0 28 4 58zM360 630q11 -2 25 -2q33 0 79 14q64 20 132 54t131 78t100 86t37 75 t-54 47q0 1 -1 1q-6 0 -36 -21q-35 -24 -87 -63t-110 -85t-108 -86t-81 -68t-27 -30z" />
<glyph unicode="f" horiz-adv-x="1174" d="M42 656q-1 5 -1 9q0 8 3 13q8 2 28 10t42 17t42 18t28 13q8 2 42 14t73 25t72 26t39 19q28 20 70 99t94 189t115 236t135 242t152 207t167 130q51 23 105 23q36 0 74 -11q92 -27 190 -147q18 -24 26 -53q5 -17 5 -33q0 -13 -3 -26q-22 -14 -45 -6t-42 25t-33 36t-20 29 q-65 10 -119 10q-39 0 -73 -5q-80 -13 -138 -50t-99 -94t-76 -126t-69 -149t-76 -160q-16 -30 -41 -77t-47 -92t-38 -78t-16 -35v-28q0 -6 29 -11t75 -10t100 -11t104 -17t89 -27t55 -38l-28 -26q-114 6 -199 6h-41q-98 -2 -170 -33t-127 -98t-113 -187q-20 -42 -53 -108 t-64 -129t-55 -110t-26 -49l-28 -28q-4 2 -13 10t-18 17t-16 18t-9 13q-4 6 -4 27t4 27l210 482h-238q-6 0 -12 10t-11 24t-7 28z" />
<glyph unicode="g" horiz-adv-x="904" d="M-574 -374q-2 26 -2 50q0 36 5 66q9 50 30 76t49 12v-16q0 -206 51 -313q53 -111 140 -139q35 -11 73 -11q58 0 123 25q109 42 219 131t211 212t172 257t100 266q14 63 14 120q0 62 -17 118q-180 -130 -295 -182q-103 -47 -164 -47q-7 0 -14 1q-63 6 -78 61q-7 24 -7 54 q0 37 11 82q19 81 67 180t113 195t139 178t147 130t138 52h8q60 0 103 -56q58 -76 72 -208q5 -51 5 -107q0 -87 -13 -185q-22 -160 -78 -335t-139 -341t-188 -310t-228 -239t-258 -128q-52 -13 -106 -13q-83 0 -169 32q-78 28 -127 83t-75 119t-32 130zM164 465q0 -23 1 -42 t5 -27q21 -6 42 -6q40 0 82 20q64 30 122 86t109 130t86 145t52 131q11 38 11 63q0 15 -4 26q-7 22 -30 22q-8 0 -18 -3q-38 -10 -114 -78q-30 -28 -80 -75t-101 -102t-95 -113t-62 -106q-4 -8 -5 -28t-1 -43z" />
<glyph unicode="h" horiz-adv-x="1384" d="M26 71q0 9 2 13q8 20 32 69t51 103t52 102t35 66q4 8 26 43t53 87t67 113l72 122t68 114t52 87q50 82 116 195t136 228t138 222t126 178t98 93q12 7 21 7q23 0 33 -37q2 -10 2 -41t-2 -41q-16 -26 -46 -70t-62 -93t-61 -93t-45 -70q-22 -34 -72 -112t-113 -176t-128 -204 t-118 -198t-84 -158q-25 -52 -25 -75q0 -6 2 -9q60 18 129 63t139 97t140 102t130 78q60 -8 106 -45t64 -95q-2 -24 -3 -85t-1 -128t1 -127t3 -84q2 -26 25 -68t49 -82t47 -71t19 -33q-26 -9 -50 -9q-23 0 -44 8q-44 17 -78 52t-56 82t-26 91q-4 24 -8 85t-9 128t-8 127 t-3 84l-58 30q-14 6 -51 -14t-85 -55t-100 -79t-97 -84t-78 -70t-41 -38q-22 -20 -74 -72l-111 -111t-110 -112t-71 -73q-27 -6 -53 -6h-13q-32 2 -48 36q-2 4 -2 13z" />
<glyph unicode="i" horiz-adv-x="634" d="M28 28q102 328 186 522t139 272q41 58 63 58q8 0 13 -7q10 -13 10 -44q0 -36 -13 -96q-24 -113 -100 -301t-214 -432q-12 -5 -27 -5q-9 0 -20 2q-27 5 -37 31zM462 1274q0 14 1 26t3 16q33 11 57 12q18 0 31 -7q30 -15 37 -44q3 -13 3 -26q0 -17 -5 -36q-9 -33 -29 -49 q-12 -9 -25 -9q-9 0 -20 4q-25 11 -49 69q-2 6 -3 18t-1 26z" />
<glyph unicode="j" horiz-adv-x="466" d="M-863 -573q7 63 85 123q18 -2 25 -25t11 -55t8 -70t17 -72t38 -59t71 -31q26 -4 52 -4q84 0 155 41q93 53 167 153t134 233t109 276t90 285t78 257t73 192t74 93q31 -10 31 -91v-5q-1 -86 -29 -217t-80 -292t-123 -322t-156 -309t-180 -251t-195 -149q-51 -24 -102 -24 l-98 22q-62 26 -126 74t-100 106q-30 49 -30 101q0 10 1 20zM304 1260q13 23 37 23h6q29 -3 53 -39q15 -23 15 -62q0 -23 -5 -52q-6 -4 -13 -4t-14 4q-15 8 -28 20t-17 18l-14 20q-24 33 -24 55q0 9 4 17z" />
<glyph unicode="k" horiz-adv-x="1822" d="M44 112q-2 6 -2 15q0 28 20 82q26 71 74 173t115 226t140 254t147 257t138 236t114 191t72 122q10 7 20 7q8 0 17 -5q19 -10 32 -31t18 -45t-3 -40l-226 -394v-58q17 -3 36 -3q41 0 95 14q79 21 170 61t187 93t181 107t155 102t108 78q34 18 60 11t39 -27q11 -17 11 -40 v-7q-2 -27 -24 -51q-72 -72 -168 -123t-203 -92t-219 -78t-213 -79t-187 -95t-140 -125q32 -28 86 -86t117 -132t128 -155t117 -157t85 -138t33 -96v-56q-15 -8 -29 -8q-4 0 -8 1q-17 3 -31 13t-26 24t-20 26q-162 220 -259 364t-159 214q-59 67 -99 67h-3q-40 -3 -86 -76 t-114 -216t-184 -353q-14 -26 -31 -32t-33 0t-29 23t-19 37z" />
<glyph unicode="l" horiz-adv-x="820" d="M42 334q14 94 54 194t86 193t90 170t68 127q4 10 19 40t36 70t43 86t43 87t36 72t19 41q6 12 20 48t32 79t39 82t44 57q13 10 27 10q10 0 20 -5q24 -13 46 -75q-10 -26 -48 -100t-91 -179t-116 -232t-124 -258t-113 -255t-85 -225t-40 -168q-1 -13 -2 -23q0 -46 25 -58 q29 -15 72 -15q9 0 19 1q55 4 116 15t119 21q48 8 84 8h14q10 -22 -15 -43t-70 -37t-103 -27t-112 -16q-39 -4 -71 -4q-13 0 -25 1q-42 2 -56 12q-74 52 -94 132q-12 47 -12 99q0 36 6 75z" />
<glyph unicode="m" horiz-adv-x="2062" d="M56 98q0 10 2 14q12 26 38 80t59 121t70 140t71 140t61 119t41 78q12 26 35 65t45 75t39 62t19 26h58q9 -27 9 -52q0 -29 -12 -56q-23 -50 -54 -97t-53 -94q-12 -25 -12 -51q0 -24 10 -48q162 144 266 228t165 122q55 34 80 34h5q25 -4 25 -44q0 -34 -13 -90 q-14 -60 -29 -133t-24 -154q-4 -35 -4 -69q0 -46 7 -90h30q14 10 50 38t77 60t77 60t50 38q28 22 81 63t107 81t98 73t54 39q10 8 44 31t75 50t79 52t56 35q35 22 65 22h5q32 -2 53 -23t26 -58q1 -10 1 -20q0 -29 -10 -61q-60 -114 -120 -221t-108 -216t-79 -224t-33 -243 q-6 -4 -12.5 -4t-13.5 4q-14 8 -27 20t-17 18l-14 20q-26 34 -30 74q-1 13 -1 27q0 27 5 54q8 41 24 81t32 72q12 26 43 91t67 137t68 137t46 89v56q-6 3 -14 3q-20 0 -55 -18q-49 -25 -117 -74t-150 -115t-165 -138t-164 -145t-147 -135t-113 -107t-63 -63q-16 -5 -29 -5 q-30 0 -41 29t-11 74q0 20 2 42q7 74 29 165t46 172t43 138t17 63q-17 6 -35 6q-34 0 -70 -20q-55 -30 -112 -89t-116 -137t-115 -157t-110 -150t-101 -115t-88 -53q-7 -1 -13 -1q-33 0 -58 38q-2 4 -2 14z" />
<glyph unicode="n" horiz-adv-x="1440" d="M44 170q0 2 17 38t46 95t67 133t79 152t81 154t73 136t57 98t32 42q50 -34 52 -75v-10q0 -37 -13 -76q-15 -45 -33 -90q-11 -27 -11 -54q0 -18 5 -35q42 28 112 77t155 101t175 101t171 79t144 32h6q59 0 87 -38q22 -29 22 -86q0 -21 -3 -45q-11 -91 -79 -249 q-4 -12 -20 -47t-36 -81t-43 -98t-44 -98t-36 -81t-19 -47q-4 -10 -7 -37t-9 -58t-16 -60t-24 -43q-6 -6 -12 -6q-2 0 -5 1q-9 3 -18 9t-15 13t-8 11q-2 22 -2 44q0 60 16 119q22 81 58 160t77 158t72 155t43 150q4 26 4 52q0 47 -14 94q-26 9 -54 9q-42 0 -91 -20 q-81 -33 -171 -99t-186 -155t-187 -180t-174 -173t-150 -136t-112 -68q-10 -3 -19 -3q-29 0 -40 35z" />
<glyph unicode="o" d="M68 155q-13 42 -13 88q0 48 14 102q27 105 94 215t149 203t166 156t144 71q51 7 95 7q90 0 149 -28q88 -41 121 -119q23 -54 22 -119q0 -30 -4 -62q-15 -103 -66 -209t-132 -203t-180 -162t-209 -88q-38 -8 -76 -8l-144 29q-104 42 -130 127zM170 170q16 -64 62 -82 q22 -9 49 -9q28 0 60 10q63 19 137 66t146 111t137 140t109 149t62 139q8 30 8 57q0 31 -11 56q-21 47 -87 67q-35 11 -86 11q-46 0 -104 -9q-36 -32 -90 -79t-114 -102t-117 -119t-99 -131t-61 -137q-10 -36 -10 -71q0 -34 9 -67z" />
<glyph unicode="p" horiz-adv-x="1356" d="M-229 -685q13 95 43 190t70 190t80 189t73 187t49 185q0 4 21 29t47 54t48 54t24 31q42 88 82 162t63 143q20 61 20 123v16q-3 70 -51 150q-4 4 -4 14t4 14q74 92 169 155t202 100t221 50q71 8 141 8l87 -3q96 -80 122 -182q14 -53 14 -108q0 -51 -12 -103 q-24 -109 -88 -218t-146 -205t-174 -170t-170 -114q-72 -36 -107 -47t-66 -14t-78 -5t-143 -20q-42 -8 -70 -39t-47 -70t-31 -79t-22 -66q-44 -110 -81 -204t-70 -186t-65 -189t-68 -211q-6 -12 -18 -21t-26 -11h-6q-11 0 -20 5q-12 7 -14 27q-9 52 -9 104q0 42 6 85z M340 282q45 -8 88 -8q70 0 136 21q108 35 203 109t171 178t129 218t78 230q18 83 18 157q0 29 -3 57q-34 30 -83 31h-19q-38 0 -68 -3q-136 -18 -213 -69t-126 -129t-84 -179t-85 -217q-10 -18 -30 -62t-43 -93t-42 -93t-27 -62v-86z" />
<glyph unicode="q" horiz-adv-x="990" d="M38 380q0 44 34 130q14 36 73 113t143 163t182 164t187 117q60 26 112 26q25 0 48 -6q71 -19 103 -127q6 -20 0 -55t-17 -73t-23 -73t-18 -53q-20 -52 -68 -129t-112 -170t-137 -198t-140 -215t-123 -220t-87 -212q-30 -99 -30 -186v-6q1 -90 47 -160q10 -16 51 8t100 72 t133 114t151 132t153 126t140 98t110 45q7 1 14 1q35 0 52 -32q4 -4 4 -14t-4 -14q-38 -28 -112 -96t-166 -151t-195 -167t-197 -144t-171 -82q-26 -8 -49 -8q-42 0 -70 28q-72 72 -84 170q-4 37 -4 75q0 63 12 129q20 106 60 208t72 180q52 124 66 198q8 43 8 75 q0 23 -4 40q-10 41 -39 55t-64 20t-69 12t-53 27t-19 65zM180 396q0 -18 1 -34t3 -22q26 -9 52 -9q40 0 79 21q65 34 127 95t119 138t107 140t92 101q30 27 54 27q11 0 20 -5q9 36 9 61q0 23 -8 36q-14 22 -43 22q-7 0 -14 -1q-40 -6 -98 -39t-121 -80t-127 -104t-116 -113 t-88 -103t-44 -75q-2 -6 -3 -22t-1 -34z" />
<glyph unicode="r" horiz-adv-x="1214" d="M72 28q-2 1 -2 10q0 14 4 49q6 57 19 142t32 187t42 195t49 166t52 99q18 18 35 1t34 -41t35 -42t38 -4q70 98 154 187t186 153q10 8 55 24t103 32t119 28q52 10 91 10h13q43 -2 59 -23q5 -7 5 -17q0 -20 -21 -54q-112 -2 -213 -51t-191 -129t-169 -182t-145 -207 t-121 -206t-96 -180t-70 -127t-43 -48q-4 0 -24 11t-30 17z" />
<glyph unicode="s" horiz-adv-x="990" d="M71 81q29 33 93 73t148 82t163 79t140 66t77 43q66 56 81 97q6 17 6 32q0 21 -12 37q-21 28 -72 46t-115 31t-136 23t-135 22t-109 28t-62 42q-7 11 -7 24q0 17 13 38q22 36 98 88q36 26 104 73t147 97t156 90t129 52q9 2 19 2q18 0 36 -7q29 -11 47 -29t16 -40t-34 -40 q-140 -78 -272 -149t-264 -161q-10 -20 2 -35t26 -23q214 -22 341 -59t185 -82t58 -97t-41 -105t-114 -105t-160 -99t-179 -86t-170 -64t-133 -36q-29 -6 -46 -6q-16 0 -23 5q-15 10 -15 24q0 13 14 29z" />
<glyph unicode="t" d="M28 762q18 42 53 63t77 31t89 14t91 12t82 25t62 53q24 64 54 158t66 196t77 203t85 179q15 10 27 10q10 0 18 -8q17 -16 27 -45t12 -59t0 -40q-16 -66 -52 -139t-68 -149t-50 -150q-9 -37 -9 -72.5t9 -69.5h536q4 0 14 -16t16 -26q4 -9 4 -16q0 -21 -30 -30 q-40 -12 -108 -16t-153 -6t-165 -12t-142 -36t-84 -80q-66 -170 -121 -339t-105 -339q-6 -10 -21 -26t-32 -27q-13 -9 -27 -9l-7 1q-17 3 -25 31q-4 6 -4 28t4 28q8 28 27 97t42 145t43 144t28 96q10 34 23 81q8 29 8 56q0 17 -3 33q-8 1 -18 1q-32 0 -74 -11 q-54 -14 -109 -22q-28 -4 -53 -4t-48 4q-46 8 -66 58z" />
<glyph unicode="u" horiz-adv-x="1440" d="M58 198q-5 15 -5 34q0 31 13 74q22 70 65 156t98 177t110 170t101 135t70 74q53 -25 53 -74q0 -5 -1 -10q-6 -56 -46 -128t-101 -155t-114 -165t-86 -157q-22 -51 -22 -92q0 -20 5 -39q17 -7 37 -7q27 0 60 13q57 22 123 71t139 118t144 146t139 154t125 144t100 115 t65 66q52 -26 52 -82t-28 -129t-70 -157t-72 -166t-35 -157v-15q0 -66 41 -114l84 -100h254q11 0 11 -6q0 -4 -4 -9q-11 -15 -30 -33t-39 -34t-22 -16q-32 -6 -56 -6t-47 4t-45 11t-48 19q-70 26 -110 72t-62 103t-33 121t-23 128q-18 12 -55 -12t-87 -65t-110 -94 t-123 -100t-125 -82t-118 -40q-8 -1 -16 -1q-47 0 -84 26q-44 30 -72 114z" />
<glyph unicode="v" horiz-adv-x="1328" d="M41 300q-1 15 -1 31q0 68 11 142q13 91 30 175t35 152t26 104q12 8 27 0t28 -20t22 -24l9 -12q3 -48 3 -95q0 -39 -2 -76q-5 -83 -14 -166t-16 -168q-4 -46 -4 -92q0 -40 3 -81q10 -19 31 -18q13 0 29 6q44 18 108 70t142 129t162 165t168 178t160 168t138 136t101 81 q21 12 34 12q11 0 16 -9q3 -6 3 -17q0 -26 -18 -81q-46 -40 -104 -110t-125 -155t-142 -179t-153 -181t-158 -161t-158 -119t-151 -56q-16 -2 -31 -2q-56 0 -108 31q-52 30 -75 95t-26 147z" />
<glyph unicode="w" horiz-adv-x="1864" d="M38 96q-5 13 -5 27q0 22 11 47q48 152 105 323t119 327q22 56 49 61t46 -20t27 -69q3 -15 3 -29q0 -29 -11 -57q-8 -20 -28 -72t-43 -111t-42 -111t-27 -72v-86q78 70 131 126t99 112t96 119t124 151q56 66 89 73t49 -27t20 -97q2 -36 2 -76q0 -30 -1 -61q-3 -74 -7 -147 q-3 -58 -3 -105v-22q1 -54 12 -77t37 3q30 46 87 137t130 199t159 220t176 200t180 139q73 41 140 41q16 0 32 -2q4 -12 -28 -56t-83 -105t-113 -132t-119 -137t-103 -118t-62 -76q-8 -10 -31 -45t-55 -81t-68 -98t-68 -99t-57 -82t-33 -47q-22 -32 -37 -52t-29 -27 q-8 -4 -17 -4q-7 0 -14 2q-17 5 -43 25q-48 36 -76 96t-42 128t-18 136t-6 120q-4 4 -14 4t-14 -4q-62 -46 -120 -107t-113 -127t-110 -130t-109 -116q-24 -8 -49 -8q-11 0 -22 1q-37 5 -64 24t-39 51z" />
<glyph unicode="x" horiz-adv-x="1258" d="M44 58q-10 14 -10 31q0 22 19 48q33 45 96 96t142 107t146 111t110 106q35 41 35 77q0 8 -2 16q-2 12 -15 57t-27 98t-27 98t-15 57q-2 6 -2 28t2 30q22 16 43 2t41 -46t39 -74t37 -82t34 -71t30 -41q44 30 96 71t102 85t95 85t75 71q45 23 67 23q3 0 6 -1q22 -4 22 -29 q0 -21 -14 -52q-15 -33 -32 -64t-33 -53l-16 -22q-132 -120 -202 -204t-97 -141q-21 -44 -21 -75q0 -9 2 -18q8 -36 34 -60t61 -41t61 -38t36 -51q3 -8 3 -18q0 -26 -19 -62q-28 -7 -51 -7q-33 0 -55 14q-38 23 -62 65t-41 92t-41 86t-62 47q-9 3 -20 3q-34 0 -86 -26 q-68 -34 -171 -125t-257 -261q-4 2 -12 10l-17 17t-17 18t-10 13z" />
<glyph unicode="y" horiz-adv-x="1102" d="M-424 -852q24 72 67 152t90 149t69 99q20 26 62 82t95 125t111 146t111 147t95 125t62 81q10 11 10 28t-11 42q-21 48 -62 112t-92 140t-92 155t-62 156q-11 39 -11 77q0 35 10 68q8 6 17 6q20 0 43 -30q34 -44 70 -120t75 -167t77 -165t74 -116q23 -27 44 -27q12 0 24 9 q64 48 127 122t120 154t109 157t96 133q18 22 35 31t51 -3q12 -4 12 -20q0 -15 -10 -39q-20 -51 -71 -136t-127 -197t-167 -238t-191 -262t-199 -269t-190 -258t-165 -230t-125 -183t-69 -118q-10 -22 -21 -45t-33 -39q-4 2 -13 10t-18 17t-17 18t-10 13q-12 18 -12 45 t12 63z" />
<glyph unicode="z" horiz-adv-x="1414" d="M67 105q15 49 71 113t146 139t193 154t211 161t201 159t161 146t94 125q-6 32 -51 36q-14 1 -29 1q-35 0 -78 -6q-62 -9 -132 -23t-124 -16h-10q-47 0 -73 17q-18 12 -18 38q0 16 7 37q2 4 54 21t129 34t166 30q77 11 146 11h21q78 -2 131 -24t58 -75v-9q0 -51 -52 -132 q-57 -88 -201 -222q-10 -10 -43 -40t-74 -66t-79 -70t-58 -50q-16 -14 -61 -48t-101 -77t-116 -91t-108 -90t-76 -74t-18 -44q50 -5 101 -5l111 6q106 11 211 27t211 27q56 6 112 6q51 0 102 -5q12 -8 26 -20t24 -27t12 -32t-6 -35q-64 -4 -161 -21t-208 -37t-228 -38 t-224 -26q-57 -4 -109 -4q-45 0 -87 3q-89 7 -141 39q-37 21 -37 55q0 10 4 22z" />
<glyph unicode="{" horiz-adv-x="678" d="M41 344q-5 100 65 186q6 8 35 42t63 72t63 71t35 41q32 38 33 65t-15 48t-41 38t-44 35t-27 41t10 55q4 6 21 27t37 44t36 44t20 27q28 64 13 129t-44 129t-56 126t-21 122t60 118t188 112q14 6 28 0t24 -16t18 -22t14 -20q-22 -28 -70 -60t-91 -69t-67 -83t4 -100 l140 -282q0 -2 -3 -39t-6 -89t-2 -110t11 -100q18 -72 7 -121t-39 -86t-66 -68t-75 -63t-67 -73t-42 -97q-24 -124 6 -202t94 -128t150 -83t174 -69q48 -18 44 -38t-43 -32t-100 -10t-127 26q-84 30 -164 103t-129 166t-54 193z" />
<glyph unicode="|" horiz-adv-x="282" d="M56 368q0 90 1 170t1 112q0 20 2 81t5 142t6 173t6 173t5 141t4 80q0 4 3 30t10 60t16 68t22 55t28 20t33 -35q6 -202 1 -403t-12 -402l-14 -402t-3 -403q-16 -34 -41 -30t-43 30q-4 6 -15 28t-13 28q0 32 -1 113t-1 171z" />
<glyph unicode="}" horiz-adv-x="750" d="M24 2004h82q6 0 42 -33t81 -78t90 -93t71 -78q64 -78 80 -147t1 -133t-53 -127t-84 -131q-8 -12 -19 -33t-9 -23l140 -142q34 -32 23 -54t-33 -39t-42 -34t-4 -41q30 -44 74 -91t88 -97t78 -102t42 -108q12 -66 -16 -149t-78 -164t-114 -152t-124 -111t-109 -42t-67 56 q-8 22 23 50t79 65t105 82t104 98t73 113t12 128q-12 56 -46 103t-78 89t-88 83t-75 85t-41 94t16 112q-56 114 -69 172t0 85t43 37t61 31t55 67t24 144q0 50 -29 97t-71 90t-89 84t-85 80t-58 78t-6 79z" />
<glyph unicode="~" horiz-adv-x="1328" d="M86 77q-12 35 2 95t48 133t79 137t98 105t105 37t98 -66t78 -206q24 -106 65 -147t94 -38t117 40t131 85t136 96t135 76q14 -24 -15 -70t-85 -100t-130 -107t-151 -89t-149 -48t-120 18q-66 40 -97 111t-48 139t-31 114t-45 36t-91 -94t-168 -276q-44 -16 -56 19z" />
<glyph unicode="&#xa1;" horiz-adv-x="664" d="M37 1575.5q17 -31.5 45.5 -52t58.5 -22.5t40 32q8 33 0 69.5t-29 59t-50.5 20t-61.5 -47.5q-20 -27 -3 -58.5zM181 1001q-6 -14 4 -68t31 -131.5t50.5 -171.5t64.5 -188.5t71.5 -181.5t73.5 -152t70.5 -100t59.5 -22q2 12 -10 76t-33.5 156.5t-52.5 205t-65.5 220 t-71.5 201t-72 149.5t-65.5 63t-54.5 -56z" />
<glyph unicode="&#xa2;" horiz-adv-x="1398" d="M65 363q19 113 86 240t159 242t195 208t193 140t155 37t81 -100q6 -40 -10 -88t-44 -92t-64 -80t-69 -54t-60 -12t-35 44q30 52 67 101t73 95q-14 28 -57 13t-102 -60t-126 -113t-129 -148t-111 -167t-71 -167t-11 -148t71 -112q82 -6 189 17t220 60t224 82t202 82 t155 58t84 11q36 -18 21 -50t-68 -71t-136 -81t-180 -81t-201 -72t-201 -54t-178 -26t-131 11q-128 42 -169 132t-22 203zM472 598q0 20 4 84t10 151t13 184t13 184t10 150t6 83q0 4 3 30t10 60t17 68t23 55t28 20t33 -35q-28 -202 -48 -423t-23 -448t17 -449t74 -422 q-18 -34 -42 -31t-42 31q-4 6 -16 27t-14 27q0 22 -6 73t-15 116t-19 138t-18 139t-14 116t-4 72z" />
<glyph unicode="&#xa3;" horiz-adv-x="830" d="M-30 728q6 10 38 17t82 13q20 132 56 259t86 236t112 192t135 126t155 38t172 -71l-74 -132q-62 60 -119 66t-109 -29t-98 -104t-85 -160t-70 -198t-53 -217q74 2 155 0t152 -11t125 -25t72 -40q-26 0 -90 -4t-136 -8t-136 -8t-90 -6q-20 2 -37 4t-33 4q-16 -92 -26 -179 t-11 -161t5 -131t22 -87q28 12 107 31t189 23t238 -19t256 -91q24 -14 5 -17t-68 -1t-120 8t-150 12t-159 10t-148 2t-116 -12t-62 -30q-58 120 -71 293t9 363q-66 12 -91 23t-19 21z" />
<glyph unicode="&#xa4;" horiz-adv-x="1484" d="M135 44q3 18 41 70l150 166q-26 4 -37 38t-8 83t19 109t40 119t56 111t70 84q-36 46 -86 88t-93 87t-71 95t-18 112q44 2 94 -34t95 -88t80 -111t47 -101q38 66 104 102t138 47t140 -4t112 -51q150 106 241 153t132 53t35 -21t-51 -70t-124 -92t-185 -87q18 -46 15 -98 t-22 -108t-50 -112t-69 -108q44 -22 88 -68t81 -97t60 -100t26 -78t-19 -31t-78 40q-24 38 -56 70t-65 63t-61 63t-40 68q-24 -46 -78 -80t-118 -54t-129 -26t-111 6q-22 -24 -59 -59t-79 -68t-79 -59t-59 -33t-19 11zM368 372q2 -16 12 -25t20 -14t19 -8t11 -5 q46 -28 110 -14t133 55t135 101t116 127t76 132t14 116t-69 78t-173 19q-16 2 -55 -21t-87 -66t-100 -100t-92 -121t-61 -129t-9 -125z" />
<glyph unicode="&#xa5;" horiz-adv-x="1004" d="M46 352q-18 26 34 48t135 39t174 30t151 19q6 24 12 47t10 47q-66 -4 -131 -5t-116 3t-86 13t-41 27q12 24 50 44t93 36t121 25t134 13q2 24 3 49t1 51q-10 24 -44 77t-82 125t-104 153t-107 161t-92 150t-61 118t-13 67t53 -3q36 -32 87 -104t108 -161t116 -183 t109 -168t88 -117t54 -31q20 38 52 110l72 162t85 190t90 192t88 170t79 124t62 53t38 -41q-26 -44 -79 -157t-119 -270t-140 -345t-144 -384q60 -10 103 -29t61 -47q-10 -12 -67 -25t-141 -25q-10 -28 -17 -53t-17 -53h77h79h68h44q16 -8 27 -24t3 -34q-70 -10 -156 -23 t-178 -29q-36 -116 -65 -224t-49 -203t-28 -174t-2 -137q-8 -26 -24 -49t-37 -33t-42 1t-37 55q-30 72 -27 156t24 177t54 195t65 208q-108 -20 -199 -36t-147 -26q-22 -4 -37 -3t-27 7t-23 19t-25 35z" />
<glyph unicode="&#xa6;" horiz-adv-x="282" d="M56 368q0 90 1 170t1 112q0 14 1 25t3 32t4 58t4 107l130 8q-4 -128 -10 -229t-11 -197t-8 -197t-1 -229q-16 -34 -41 -30t-43 30q-4 6 -15 28t-13 28q0 32 -1 113t-1 171zM70 1008q2 64 5 134t5 132t4 107t2 59q0 4 3 30t10 60t16 68t22 55t28 20t33 -35q4 -146 3 -310 t-5 -310z" />
<glyph unicode="&#xa7;" horiz-adv-x="1510" d="M186 48q-30 20 0 53t94 72t148 81t163 80t139 66t76 42q56 48 75 85t10 64t-43 45t-82 32l-236 12q-82 12 -154 33t-107 52t-20 76t107 109q32 22 91 63t129 86t141 86t129 63q-90 14 -174 28t-129 40t-34 67t109 109q36 26 104 74t147 97t157 90t130 51q26 6 55 -4 t46 -28t16 -40t-33 -40q-142 -78 -274 -149t-264 -163q-10 -18 2 -33t28 -23q242 -26 373 -70t179 -98t25 -114t-89 -120t-164 -116t-200 -100q126 -42 167 -94t23 -110t-85 -117t-157 -113t-192 -100t-191 -77t-154 -44t-81 -3zM440 838q-12 -28 9 -42t52 -21t65 -10t50 -5 q66 36 139 71t139 65t114 54t62 36q80 70 88 111t-22 58t-79 14t-81 -21q-140 -78 -272 -149t-264 -161z" />
<glyph unicode="&#xa8;" horiz-adv-x="1194" d="M257 1170q17 52 57 82t87 24t73 -70q14 -38 -5 -79t-54 -67t-75 -29t-64 33q-36 54 -19 106zM615 1183q17 53 57 82t87 23t73 -70q14 -38 -5 -79t-54 -67t-75 -29t-64 35q-36 52 -19 105z" />
<glyph unicode="&#xa9;" horiz-adv-x="1706" d="M22 610q8 174 69 359t163 353t238 303t292 209t325 71t337 -113q102 -60 152 -161t57 -225t-23 -265t-91 -283t-148 -278t-191 -251t-223 -201t-242 -128t-247 -32t-242 86q-128 90 -181 236t-45 320zM136 603q-16 -129 17 -245t131 -204q110 -78 232 -70t244 78t236 188 t208 258q-76 -36 -165 -68t-174 -54t-158 -29t-117 7q-74 26 -108 74t-37 110t22 134t67 145t97 143t114 127t117 98t105 56t80 1t43 -68q4 -30 -7 -65t-32 -68t-47 -60t-51 -41t-45 -10t-28 34q24 38 51 75t55 71q-14 26 -64 -1t-114 -87t-127 -142t-103 -166t-43 -158 t55 -118q74 -6 171 19t196 62t190 75t151 60q54 98 94 195t61 187t22 169t-23 137q-30 138 -100 203t-163 72t-202 -38t-221 -127t-218 -193t-192 -238t-145 -263t-75 -265z" />
<glyph unicode="&#xaa;" horiz-adv-x="1072" d="M45.5 585q-4.5 59 16.5 132t61.5 154t93.5 154t115 131t125 86.5t122.5 20t108.5 -69.5q30 -37 36 -75.5t-2 -78.5t-24 -81t-32 -83t-26 -86t-3 -89q6 -44 32.5 -60t66.5 -13t89 20.5t99 43t97.5 53.5t84 52.5t58.5 40.5l23 16q42 9 47.5 -5.5t-16.5 -42t-66 -63 t-101 -68.5t-120.5 -60.5t-124.5 -37.5t-114.5 1.5t-89.5 53.5q-15 18 -24.5 37t-26.5 32q-23 -22 -54.5 -55.5t-69.5 -67.5t-80 -64t-85.5 -46t-88.5 -11t-87 40q-36 30 -40.5 89zM103 547q10 -37 40.5 -43t72 11.5t90.5 55.5t97.5 92t92 119t74.5 137t45.5 146t3.5 146 q-26 22 -64.5 12t-83 -43t-91.5 -83.5t-90.5 -110t-82 -124t-64.5 -124t-37.5 -110t-2.5 -81.5z" />
<glyph unicode="&#xab;" horiz-adv-x="1706" d="M32 818q4 40 54 86q22 20 68 62t105 95t123 111t123 111t105 95t68 62q12 4 35 0t41 -16t24 -29t-14 -39l-536 -536q-18 -18 -8 -44t36 -57t62 -62t70 -56t61 -43l33 -22q22 -16 68 -47t104 -70t123 -82t123 -82t105 -69t69 -44q26 -32 30 -63t-8 -51t-40 -22t-66 22 q-202 132 -407 268t-385 298q-40 36 -81 72t-65 74t-20 78zM530 886q4 40 54 84q22 20 68 63t105 96t123 111t123 111t105 95t68 62q12 4 35 0t41 -16t24 -30t-14 -38l-538 -538q-18 -16 -7 -43t37 -57t62 -61t70 -56t60 -43t32 -22q22 -16 68 -47t104 -70t123 -82t123 -82 t105 -70t69 -45q26 -32 31 -63t-8 -51t-41 -22t-66 24q-200 132 -405 268t-385 298q-40 36 -81 72t-65 74t-20 78z" />
<glyph unicode="&#xac;" horiz-adv-x="1288" d="M182 846q-10 16 26 34t102 36t154 32t182 22t186 7t166 -15t121 -42t53 -74l4 -434q-28 -52 -56 -29t-50 89t-34 160t-6 186q-36 2 -107 -6t-156 -18t-178 -17t-175 -5t-144 19t-88 55z" />
<glyph unicode="&#xad;" horiz-adv-x="1244" d="M72 706q-32 32 4 62t115 55t189 43t227 28t229 8t195 -17t125 -45t18 -78q-26 0 -90 -4t-137 -8t-137 -8t-90 -6q-62 -6 -152 -30t-184 -40t-179 -12t-133 52z" />
<glyph unicode="&#xae;" horiz-adv-x="1706" d="M22 610q8 174 69 359t163 353t238 303t292 209t325 71t337 -113q102 -60 152 -161t57 -225t-23 -265t-91 -283t-148 -278t-191 -251t-223 -201t-242 -128t-247 -32t-242 86q-128 90 -181 236t-45 320zM136 603q-16 -129 17 -245t131 -204q98 -72 208 -71t221 54t218 150 t199 217t166 254t119 262t57 241t-20 191q-30 138 -100 203t-163 72t-202 -38t-221 -127t-218 -193t-192 -238t-145 -263t-75 -265zM340 398q-10 24 14 83t66 135t92 159t92 154t69 121t23 62q-16 4 -33 -3l-34 -14t-33 -9t-28 14t3 29t25 19q206 132 378 186t284 49 t151 -60t-24 -142t-241 -196t-496 -223q-10 -20 38 -49t119 -63t149 -69t129 -69t59 -64t-62 -50q-2 -2 -38 14t-78 36t-78 38t-40 22q-106 76 -177 92t-117 -3t-74 -60t-49 -79t-41 -59t-48 -1zM654 882q210 56 336 118t186 120t63 104t-33 70t-102 18t-144 -51t-159 -137 t-147 -242z" />
<glyph unicode="&#xb0;" horiz-adv-x="820" d="M86 1225q16 51 55 104t88 97t99 73t88 33q124 16 179 -23t57 -102t-41 -137t-112 -131t-157 -84t-176 7q-62 24 -79 68t-1 95zM182 1174q12 -46 49 -57t84 4t97 49t91 75t65 83t17 73t-50 47t-137 2q-32 -28 -76 -52t-80 -54t-56 -70t-4 -100z" />
<glyph unicode="&#xb1;" horiz-adv-x="950" d="M56 568q2 2 10 6t17 9t17 9t12 4q16 4 56 12l85 17t86 17t57 12l54 394q2 14 16 23t29 9t27 -8t12 -24v-366q14 0 51 -4t78 -9t77 -9t50 -6q6 -2 29 -13t27 -17q-26 -42 -71 -56t-92 -20t-88 -16t-61 -48q-16 -32 -19 -65t0 -65t10 -64t11 -64q82 10 156 13t119 -5 t52 -31t-41 -63q-134 -16 -244 -41t-197 -40t-154 -9t-115 54q-10 10 14 23t70 28t109 29t131 26q-22 70 -27 148t-13 140h-284z" />
<glyph unicode="&#xb2;" horiz-adv-x="772" d="M38 372q3 12 14 23q47 43 93.5 84t90 83t81.5 87t69 99q16 28 13 41t-18 16.5t-38.5 -0.5t-48.5 -11.5t-48 -15t-37.5 -11.5t-17 -1.5t14.5 15.5q22 21 54.5 36.5t66 22.5t64 5.5t49.5 -15t21.5 -39t-20.5 -64.5q-27 -47 -66.5 -88t-82 -79.5t-81.5 -78.5t-62 -86 q19 -5 60.5 4t93 23.5t108 30t107 24t90 6.5t56.5 -22q2 -2 2 -11t-2 -12q-37 6 -88.5 -3.5t-109.5 -25t-119 -33.5t-117 -30t-102 -13t-76 17q-17 10 -14 22z" />
<glyph unicode="&#xb3;" horiz-adv-x="564" d="M22 526q-1 6 1 12t9 9q10 4 22.5 2t25.5 -7t25.5 -9t23.5 -2q15 2 40.5 16.5t56 37t63 51.5t61.5 60.5t51.5 63t32.5 60.5t5.5 52t-30.5 38q-17 5 -44.5 -4t-58 -22t-61 -25.5t-53.5 -15.5t-35 7.5t-6 43.5q13 21 34 52.5t43.5 68.5t42.5 76.5t31 74.5q-1 0 -16 -6 t-36 -12.5t-44.5 -12t-41.5 -5.5t-26 8t2 28q2 5 20 20t44 32.5t56 34t56 23.5t43.5 0.5t18.5 -35t-18.5 -83t-68.5 -142.5v-46q76 9 119 -10t59 -53.5t7.5 -82t-35 -97t-69.5 -97t-95.5 -82t-112.5 -53t-121 -9.5q-1 1 -5.5 7.5t-5.5 8.5q-2 5 -5.5 11.5t-4.5 12.5z" />
<glyph unicode="&#xb4;" horiz-adv-x="582" d="M66 1051q4 35 38 93t86 112t114 93t122 35q16 -74 -1 -109t-52 -59t-79 -52t-82 -88q-84 -60 -117 -60t-29 35z" />
<glyph unicode="&#xb5;" horiz-adv-x="1002" d="M58 944q-2 60 38 86q22 -24 74 -102t119 -177t144 -206t150 -191t137 -130t106 -24q12 58 -13 134t-67 158t-90 166t-79 157t-35 129t40 86q18 -18 54 -75t79 -137t87 -172t77 -178t50 -158t7 -110q-22 -84 -57 -115t-78 -26t-92 40t-98 83t-96 101t-86 96t-68 66t-43 11 q-6 -44 20 -124t66 -178t84 -201t74 -191t37 -152t-29 -82l-78 -8q-40 224 -97 416t-114 351t-109 285t-82 219t-32 153z" />
<glyph unicode="&#xb6;" horiz-adv-x="1398" d="M200 966q-8 98 38 169t129 116t195 64t240 12t262 -38t262 -87q-16 -34 -54 -118t-92 -195t-119 -240t-133 -253t-136 -233t-128 -181t-109 -97t-77 19q-2 4 -2 13t2 13q10 20 32 60t50 90t58 105t58 105t50 90t34 60q26 48 49 87t55 102t81 163t127 268 q-112 -12 -174 10q-20 -56 -56 -140t-82 -183t-100 -205t-109 -207t-108 -189t-98 -148t-79 -87t-50 -5q-10 42 4 96t38 110t51 108t45 92q14 28 50 101t77 157t77 161t50 117q-44 14 -90 13t-89 -7t-83 -10t-71 4t-51 35t-24 83z" />
<glyph unicode="&#xb7;" horiz-adv-x="804" d="M358 648q0 52 22 96t59 73t77 35t77 -17t59 -85q14 -36 6 -76t-30 -74t-54 -61t-65 -37t-65 -2t-54 44q-32 52 -32 104z" />
<glyph unicode="&#xb8;" horiz-adv-x="606" d="M130 -394q-8 24 6 36t42 20t63 13t68 12t60 18t39 31q16 30 5 45t-35 22t-56 10t-60 10t-45 23t-13 50q-10 56 -7 103t14 66t30 0t41 -93q10 -32 38 -49t63 -28t71 -19t62 -20t37 -33t-5 -59q-4 -20 -47 -62t-103 -79t-126 -55t-114 10q-6 2 -16 13t-12 15z" />
<glyph unicode="&#xb9;" horiz-adv-x="494" d="M12 471q3 38 18.5 77t35 73.5t27.5 48.5q6 12 22.5 45.5t38 78t47.5 95t47.5 95t38.5 77.5t22 44q5 10 11 28.5t14.5 39.5t19.5 40t24.5 28.5t31 5t38.5 -29.5q1 -1 -13.5 -36.5t-40 -93t-58 -130.5t-67.5 -149t-68.5 -149.5t-60.5 -131t-45.5 -93.5t-22.5 -37 q-3 -1 -17.5 4.5t-20.5 11.5q-25 20 -22 58z" />
<glyph unicode="&#xba;" horiz-adv-x="820" d="M86 1225q16 51 55 104t88 97t99 73t88 33q124 16 179 -23t57 -102t-41 -137t-112 -131t-157 -84t-176 7q-62 24 -79 68t-1 95zM182 1174q12 -46 49 -57t84 4t97 49t91 75t65 83t17 73t-50 47t-137 2q-32 -28 -76 -52t-80 -54t-56 -70t-4 -100z" />
<glyph unicode="&#xbb;" horiz-adv-x="1472" d="M70 1384q0 6 7 15t16 18t18 16t15 7q54 -42 136 -94t170 -114t168 -131t128 -143t51 -152t-61 -156q-20 -26 -58 -71t-84 -100t-95 -114t-92 -110t-76 -90t-45 -53l-22 -22l-34 -34t-35 -34t-23 -22q-4 2 -12 10l-17 17t-17 18t-10 13q-24 48 10 108t99 127t146 139 t148 144t108 141t25 131q-2 6 -46 42t-109 88t-139 113t-136 119t-101 104t-33 70zM614 1398q0 6 8 15t17 18t18 16t15 7q52 -40 135 -93t170 -115t168 -131t129 -143t51 -152t-61 -156q-20 -26 -58 -71t-84 -100t-95 -113t-92 -110t-76 -91t-45 -53q-6 -6 -23 -22t-35 -34 t-35 -34t-23 -22q-4 2 -12 10l-17 17t-16 18t-9 13q-24 48 10 108t99 127t145 139t148 144t109 141t25 131q-2 6 -46 42t-109 88t-139 113t-137 119t-102 104t-33 70z" />
<glyph unicode="&#xbc;" horiz-adv-x="1686" d="M83 473.5q2 32.5 16 66t31 63.5t24 42q5 10 20 39t34 67.5t42 82.5t42 82.5t33.5 67t19.5 38.5q4 7 9.5 23.5t13 34.5t17.5 34.5t21.5 25t27 4.5t33.5 -26q2 -1 -11 -31.5t-35.5 -80t-51.5 -112.5t-59.5 -129t-60 -129.5t-53.5 -113.5t-40 -81t-20 -32q-2 -1 -15 4 t-18 10q-22 18 -20 50.5zM320 77q-14 94 6 225.5t60 280t96 306.5t114 306.5t113 277t96 220.5q21 18 37 8.5t24 -31.5t10.5 -48.5t-0.5 -40.5q-9 -22 -25 -65t-36.5 -98.5t-43.5 -115.5t-43.5 -115t-37 -98.5t-23.5 -63.5q-10 -24 -30.5 -84t-42.5 -127t-41 -126t-25 -81 q-10 -34 -24.5 -104.5t-32 -150.5t-39 -156t-44.5 -119q-4 -8 -14 -17t-21.5 -12t-20.5 2t-12 27zM439.5 400.5q3.5 30.5 21.5 65t46 71.5t56 73.5t52.5 70.5t36.5 63q33 7 48 0.5t17 -21t-5.5 -34.5t-19 -40t-23 -37t-17.5 -27q-7 -10 -23.5 -34t-34.5 -51.5t-34.5 -51.5 t-23.5 -34v-27q35 -3 74 2.5t78 14.5t76 19t68 18q71 15 114 48t71 77t48.5 96.5t47.5 108.5q34 9 43 -7t2.5 -45.5t-22.5 -67t-33 -73.5t-30 -63t-10 -35q23 7 47.5 0t34.5 -26q-9 -16 -28 -22t-41.5 -10.5t-44 -11t-33.5 -23.5q-31 -38 -52.5 -80t-39 -86.5t-31 -89.5 t-25.5 -87q-5 -2 -12.5 -2.5t-15.5 1t-14.5 5.5t-7.5 10q-7 27 -1.5 54t17.5 53.5t26.5 53t26 52.5t16 52t-3.5 52q-30 4 -67 -4t-77 -19.5t-81.5 -23.5t-78.5 -16t-69 3t-53 33q-19 22 -15.5 52.5z" />
<glyph unicode="&#xbd;" horiz-adv-x="1422" d="M5 472q2 34 13 70t25 67t20 44q4 11 16 41.5t27.5 71t34 86.5t33.5 86.5t27 70.5l16 40q3 8 7.5 25t10.5 36.5t14 36.5t17.5 26t22 4.5t27.5 -27.5q1 -1 -9.5 -33t-28.5 -84t-41.5 -118.5t-48.5 -136t-48.5 -136t-43 -119t-32.5 -85t-16 -33.5q-2 -1 -12.5 4t-14.5 10 q-18 19 -16 53zM162 20q-12 98 6.5 232.5t57 288t91.5 315.5t108.5 315.5t108 285t91.5 227.5q21 18 35.5 7.5t22.5 -32.5t10.5 -49.5t-0.5 -41.5q-8 -22 -24 -67t-35.5 -101.5t-41 -118.5t-41.5 -119t-35.5 -101.5t-21.5 -64.5q-9 -24 -29 -86t-41 -131t-39 -130t-24 -83 q-9 -34 -23.5 -107.5t-30.5 -155.5t-36.5 -160t-42.5 -123q-5 -8 -14 -17t-20 -12t-20 2t-12 27zM378 143.5q4 15.5 17 30.5q53 58 107 112t103.5 110.5t94 116t79.5 130.5q18 37 14.5 55t-20.5 22t-44 -1t-56 -15t-55.5 -20t-43 -15t-19.5 -2t16 21q27 28 64 48t75.5 29.5 t74 7.5t57 -19.5t24 -51.5t-23.5 -87q-30 -62 -76 -116.5t-95 -106t-93.5 -104.5t-71.5 -114q22 -6 70 6t107.5 31t124 40t122.5 32.5t103.5 8.5t65.5 -30q3 -3 3 -15t-3 -15q-43 7 -102.5 -5.5t-126 -33t-137 -44.5t-134.5 -39.5t-117 -17t-87 22.5q-21 13 -17 28.5z" />
<glyph unicode="&#xbe;" horiz-adv-x="1686" d="M23.5 518.5q-1.5 6.5 0.5 13t11 10.5q11 4 25 2t29 -7.5t29 -10t27 -2.5q16 2 45 18t64 41t71.5 56.5t69.5 66.5t58.5 69.5t37 66.5t6.5 57.5t-34 41.5q-20 5 -51.5 -4.5t-66 -24.5t-69 -28.5t-60.5 -17t-40 8.5t-7 48q15 23 39 57.5t49.5 75.5t48.5 84.5t35 82.5 q-1 0 -18 -6.5t-41 -14.5t-50.5 -13.5t-47 -5.5t-29.5 8.5t2 31.5q2 4 22.5 20.5t50 36t64 38t63.5 26t49 0.5t21 -38t-21 -91.5t-77 -156.5v-51q86 9 135 -11.5t66.5 -58.5t8 -90t-39.5 -107t-78.5 -106.5t-108.5 -90t-128 -58.5t-137 -11q-1 2 -6 9t-6 9q-2 6 -6 13 t-5.5 13.5zM347 43q-11 98 5 234t49.5 290.5t80 318.5t94.5 318.5t94 287.5t80 229q18 19 30.5 8.5t19.5 -33t9 -50t-1 -41.5q-6 -23 -20 -68t-31 -102.5t-36 -120t-36 -119.5t-30.5 -102t-19.5 -66q-8 -24 -25 -86.5t-35.5 -132t-34 -131t-20.5 -84.5q-9 -34 -21 -108 t-26.5 -157t-32 -161.5t-36.5 -123.5q-4 -9 -12.5 -18t-18 -12t-17 2t-9.5 28zM471.5 485q3.5 38 20.5 81.5t44 89.5t53.5 92t49.5 88.5t34 79.5q33 8 46.5 -0.5t16 -26.5t-5 -43t-18.5 -50t-22 -46.5t-17 -33.5q-6 -13 -21.5 -43.5t-33 -64.5t-33 -64.5t-21.5 -41.5v-34 q33 -4 70 2.5t74.5 17.5t72.5 24t64 23q68 19 109 60.5t68 96.5t46 120.5t45 135.5q32 12 41 -8t3 -57t-21.5 -84.5t-32 -92t-28.5 -78.5t-10 -44q22 9 45.5 0.5t33.5 -33.5q-9 -20 -27.5 -27.5t-39.5 -13t-41.5 -13.5t-32.5 -29q-29 -48 -49.5 -101t-37 -108.5t-29.5 -112 t-25 -109.5q-4 -2 -11.5 -2.5t-15 1t-13.5 6.5t-8 13q-6 34 -0.5 67.5t16.5 67t25 66.5t25 66t15.5 65.5t-3.5 64.5q-29 5 -64 -5t-73 -24.5t-77.5 -29t-75 -20t-66 3.5t-50.5 41q-18 29 -14.5 67z" />
<glyph unicode="&#xbf;" horiz-adv-x="1016" d="M-262.5 164q-6.5 61 24.5 121q39 77 86.5 138t98.5 116t104 106.5t100.5 110t90 127t73.5 154.5q4 8 10.5 16t13.5 9.5t12.5 -3.5t7.5 -22q8 -45 -13 -100.5t-58.5 -118.5t-88 -129t-104 -132t-105.5 -129.5t-92 -121t-64 -105.5t-22 -83.5t34.5 -55t105.5 -19.5h350 q9 -34 1 -65t-31 -31h-365q-32 0 -70 30t-65.5 78t-34 109zM307.5 1573q1.5 27 9.5 31t25 -39q9 -22 15 -46t0 -51q-9 -49 -19 -49t-17.5 26t-11 63.5t-2 64.5z" />
<glyph unicode="&#xc0;" horiz-adv-x="2118" d="M-254 -366q2 16 28 16q40 -54 104 -57t142 30t163 95t167 136t157 154t132 151t91 124t34 73q0 8 -21 24t-46 33t-48 32t-27 23q8 24 48 39t90 26t98 22t74 27q88 128 161 238t136 212t122 199t120 200t127 216t146 245q32 54 52 37t31 -84t13 -172t-1 -225t-9 -244 t-11 -229t-9 -181t-2 -100q8 -126 12 -220t25 -173t69 -153t148 -160q-82 -26 -135 5t-87 94t-55 147t-41 162t-43 138t-63 76q-4 0 -15 1t-24 1t-26 -1t-19 -1q-14 -4 -47 -11t-77 -18t-93 -23t-95 -24t-83 -21t-57 -15q-62 -16 -131 -79t-145 -152t-157 -194t-166 -205 t-173 -186t-176 -137t-176 -58t-174 51q-8 6 -24 24t-26 37t-8 35zM1160 638q6 -2 27 -2t27 2q44 6 112 16t137 24t126 33t79 41l7 52t17 133t21 181t21 195t17 176t9 125q-26 12 -72 -63t-117 -208t-172 -310t-239 -365v-30zM1708 2135q-14 33 0 107q54 4 110 -33t102 -90 t75 -108t31 -89t-29 -33t-107 63q-34 60 -72 84t-67 45t-43 54z" />
<glyph unicode="&#xc1;" horiz-adv-x="2118" d="M-254 -366q2 16 28 16q40 -54 104 -57t142 30t163 95t167 136t157 154t132 151t91 124t34 73q0 8 -21 24t-46 33t-48 32t-27 23q8 24 48 39t90 26t98 22t74 27q88 128 161 238t136 212t122 199t120 200t127 216t146 245q32 54 52 37t31 -84t13 -172t-1 -225t-9 -244 t-11 -229t-9 -181t-2 -100q8 -126 12 -220t25 -173t69 -153t148 -160q-82 -26 -135 5t-87 94t-55 147t-41 162t-43 138t-63 76q-4 0 -15 1t-24 1t-26 -1t-19 -1q-14 -4 -47 -11t-77 -18t-93 -23t-95 -24t-83 -21t-57 -15q-62 -16 -131 -79t-145 -152t-157 -194t-166 -205 t-173 -186t-176 -137t-176 -58t-174 51q-8 6 -24 24t-26 37t-8 35zM1160 638q6 -2 27 -2t27 2q44 6 112 16t137 24t126 33t79 41l7 52t17 133t21 181t21 195t17 176t9 125q-26 12 -72 -63t-117 -208t-172 -310t-239 -365v-30zM1516 1849q4 35 38 93t86 112t114 93t122 35 q16 -74 -1 -109t-52 -59t-79 -52t-82 -88q-84 -60 -117 -60t-29 35z" />
<glyph unicode="&#xc2;" horiz-adv-x="2118" d="M-254 -366q2 16 28 16q40 -54 104 -57t142 30t163 95t167 136t157 154t132 151t91 124t34 73q0 8 -21 24t-46 33t-48 32t-27 23q8 24 48 39t90 26t98 22t74 27q88 128 161 238t136 212t122 199t120 200t127 216t146 245q32 54 52 37t31 -84t13 -172t-1 -225t-9 -244 t-11 -229t-9 -181t-2 -100q8 -126 12 -220t25 -173t69 -153t148 -160q-82 -26 -135 5t-87 94t-55 147t-41 162t-43 138t-63 76q-4 0 -15 1t-24 1t-26 -1t-19 -1q-14 -4 -47 -11t-77 -18t-93 -23t-95 -24t-83 -21t-57 -15q-62 -16 -131 -79t-145 -152t-157 -194t-166 -205 t-173 -186t-176 -137t-176 -58t-174 51q-8 6 -24 24t-26 37t-8 35zM1160 638q6 -2 27 -2t27 2q44 6 112 16t137 24t126 33t79 41l7 52t17 133t21 181t21 195t17 176t9 125q-26 12 -72 -63t-117 -208t-172 -310t-239 -365v-30zM1440 1896q12 22 44 48t68 53t67 54t43 49 q56 118 102 161t82 35t62 -54t42 -107t21 -125t-1 -107t-23 -52t-45 39q-6 8 -19 47t-31 79t-37 66t-35 8q-6 -12 -23 -40t-41 -63t-54 -69t-62 -58t-66 -32t-64 14q-14 8 -27 22t-3 32z" />
<glyph unicode="&#xc3;" horiz-adv-x="2118" d="M-254 -366q2 16 28 16q40 -54 104 -57t142 30t163 95t167 136t157 154t132 151t91 124t34 73q0 8 -21 24t-46 33t-48 32t-27 23q8 24 48 39t90 26t98 22t74 27q88 128 161 238t136 212t122 199t120 200t127 216t146 245q32 54 52 37t31 -84t13 -172t-1 -225t-9 -244 t-11 -229t-9 -181t-2 -100q8 -126 12 -220t25 -173t69 -153t148 -160q-82 -26 -135 5t-87 94t-55 147t-41 162t-43 138t-63 76q-4 0 -15 1t-24 1t-26 -1t-19 -1q-14 -4 -47 -11t-77 -18t-93 -23t-95 -24t-83 -21t-57 -15q-62 -16 -131 -79t-145 -152t-157 -194t-166 -205 t-173 -186t-176 -137t-176 -58t-174 51q-8 6 -24 24t-26 37t-8 35zM1160 638q6 -2 27 -2t27 2q44 6 112 16t137 24t126 33t79 41l7 52t17 133t21 181t21 195t17 176t9 125q-26 12 -72 -63t-117 -208t-172 -310t-239 -365v-30zM1438 1809q8 41 37 99t72 113t96 96t109 51 t112 -22t104 -126q24 -106 65 -147t94 -38t117 40t131 85t136 96t135 76q14 -24 -15 -70t-85 -100t-131 -107t-152 -89t-148 -48t-119 18q-54 10 -88 39t-55 67t-33 77t-26 66t-31 37t-48 -11t-79 -79t-122 -166q-50 -30 -67 -14t-9 57z" />
<glyph unicode="&#xc4;" horiz-adv-x="2118" d="M-254 -366q2 16 28 16q40 -54 104 -57t142 30t163 95t167 136t157 154t132 151t91 124t34 73q0 8 -21 24t-46 33t-48 32t-27 23q8 24 48 39t90 26t98 22t74 27q88 128 161 238t136 212t122 199t120 200t127 216t146 245q32 54 52 37t31 -84t13 -172t-1 -225t-9 -244 t-11 -229t-9 -181t-2 -100q8 -126 12 -220t25 -173t69 -153t148 -160q-82 -26 -135 5t-87 94t-55 147t-41 162t-43 138t-63 76q-4 0 -15 1t-24 1t-26 -1t-19 -1q-14 -4 -47 -11t-77 -18t-93 -23t-95 -24t-83 -21t-57 -15q-62 -16 -131 -79t-145 -152t-157 -194t-166 -205 t-173 -186t-176 -137t-176 -58t-174 51q-8 6 -24 24t-26 37t-8 35zM1160 638q6 -2 27 -2t27 2q44 6 112 16t137 24t126 33t79 41l7 52t17 133t21 181t21 195t17 176t9 125q-26 12 -72 -63t-117 -208t-172 -310t-239 -365v-30zM1517 2106q17 52 57 82t87 24t73 -70 q14 -38 -5 -79t-54 -67t-75 -29t-64 33q-36 54 -19 106zM1875 2119q17 53 57 82t87 23t73 -70q14 -38 -5 -79t-54 -67t-75 -29t-64 35q-36 52 -19 105z" />
<glyph unicode="&#xc5;" horiz-adv-x="2118" d="M-254 -366q2 16 28 16q40 -54 104 -57t142 30t163 95t167 136t157 154t132 151t91 124t34 73q0 8 -21 24t-46 33t-48 32t-27 23q8 24 48 39t90 26t98 22t74 27q88 128 161 238t136 212t122 199t120 200t127 216t146 245q32 54 52 37t31 -84t13 -172t-1 -225t-9 -244 t-11 -229t-9 -181t-2 -100q8 -126 12 -220t25 -173t69 -153t148 -160q-82 -26 -135 5t-87 94t-55 147t-41 162t-43 138t-63 76q-4 0 -15 1t-24 1t-26 -1t-19 -1q-14 -4 -47 -11t-77 -18t-93 -23t-95 -24t-83 -21t-57 -15q-62 -16 -131 -79t-145 -152t-157 -194t-166 -205 t-173 -186t-176 -137t-176 -58t-174 51q-8 6 -24 24t-26 37t-8 35zM1160 638q6 -2 27 -2t27 2q44 6 112 16t137 24t126 33t79 41l7 52t17 133t21 181t21 195t17 176t9 125q-26 12 -72 -63t-117 -208t-172 -310t-239 -365v-30zM1528 1954q-16 42 1 91t58 99t90 92t100 70 t89 32q124 16 178 -21t55 -98t-43 -133t-114 -127t-159 -80t-177 9q-62 24 -78 66zM1642 2038q12 -66 62 -72t110 22t113 77t71 91t-15 65t-145 -1q-32 -28 -63 -47t-58 -38t-47 -41t-28 -56z" />
<glyph unicode="&#xc6;" horiz-adv-x="3982" d="M-485 -5q5 15 31 9q28 -62 90 -77t144 3t178 62t191 101t184 122t159 123t114 104t48 66q2 8 -15 27t-39 41t-42 41t-22 29q12 20 54 27t93 8t100 2t77 13q112 108 202 190t168 151t151 132t150 133t163 154t194 196q66 70 104 81t52 -22t9 -103t-23 -164q84 32 203 66 t253 65t275 57t271 43t241 23t183 -3t98 -36t-12 -77q-22 -6 -46 -1t-49 12t-51 13t-52 4q-120 -10 -235 -35t-231 -54t-231 -59t-235 -50q-124 -20 -208 -54t-137 -80t-81 -102t-42 -123t-19 -145t-13 -164q28 -6 104 12t175 43t208 52t206 38t170 0t97 -59q2 -4 2 -14 t-2 -14q-132 -20 -273 -36t-280 -40t-272 -65t-249 -113q-2 -4 -4 -6t-4 -6q-4 -18 -7 -34t-7 -30q-28 -144 -79 -299t-103 -299q74 20 155 39t152 34t120 24t61 11q212 34 409 53t409 5q18 -4 25 -20t9 -34t0 -35t-4 -25q-274 14 -541 -21t-535 -93q-28 -6 -66 -20t-79 -29 t-85 -30t-84 -21q-48 -144 -68 -243t16 -127q-56 -6 -84 22t-36 82t0 128t26 158q-6 4 -11 10t-7 16q-14 12 8 28q24 90 51 171t57 161q14 60 24 112t13 94t-2 70t-21 40q-4 0 -15 3t-24 5t-26 5t-19 3q-22 0 -77 21t-119 46t-124 45t-90 18q-64 -4 -144 -52t-172 -121 t-192 -160t-203 -169t-205 -149t-199 -101t-184 -24t-161 84q-6 6 -18 27t-18 43t-1 37zM1096 708q4 -4 25 -8t27 -2q44 -4 103 -32t112 -60t91 -58l38 -26l68 46q0 2 2 4l4 12q-10 18 -12 36t20 40q4 4 20 6q22 66 53 161t62 191t56 182t37 134q-10 -20 -36 -55t-99 -101 t-207 -173t-360 -269z" />
<glyph unicode="&#xc7;" horiz-adv-x="1582" d="M12 320q-12 94 18 202t89 223t142 232t177 228t193 212t191 184t170 144t130 93q90 54 150 54t96 -37t50 -101t13 -136t-15 -143t-35 -124t-45 -77t-46 -2q-2 20 5 62t18 93t22 106t15 102t-3 79t-29 38q-72 18 -164 -20t-195 -116t-209 -188t-205 -236t-184 -260 t-144 -260t-87 -236t-14 -188t78 -116t188 -20q94 14 179 56t165 100t155 126t150 133t152 120t159 89q44 16 72 -14t14 -72t-89 -112t-183 -147t-238 -153t-254 -131t-230 -79t-166 0q-122 48 -183 123t-73 169zM546 -320q-8 24 6 36t42 20t63 13t68 12t60 18t39 31 q16 30 5 45t-35 22t-56 10t-60 10t-45 23t-13 50q-10 56 -7 103t14 66t30 0t41 -93q10 -32 38 -49t63 -28t71 -19t62 -20t37 -33t-5 -59q-4 -20 -47 -62t-103 -79t-126 -55t-114 10q-6 2 -16 13t-12 15z" />
<glyph unicode="&#xc8;" horiz-adv-x="1864" d="M44 58q-14 12 8 28q24 90 52 173t58 164t63 164t71 175q12 24 -5 48t-37 48t-30 49t18 53q2 2 19 7t36 9t36 8t21 6t12 9t17 16l17 17t10 12q38 68 75 121t68 105t58 110t45 136q8 30 -14 38t-49 16t-46 24t-3 62q10 28 96 60t219 62t297 55t329 40t316 18t256 -11 t149 -48t-2 -92q-22 -6 -46 -1t-49 12t-51 13t-52 4q-120 -10 -236 -8t-230 2t-229 -9t-231 -41q-80 -22 -142 -79t-119 -143t-114 -199t-125 -247q28 -6 104 12t175 43t208 52t206 38t170 0t97 -59q2 -4 2 -14t-2 -14q-132 -20 -273 -36t-280 -40t-272 -65t-249 -113 q-96 -168 -171 -345t-133 -361q72 26 168 50t185 43t156 32t79 15q212 34 409 53t409 5q18 -4 25 -20t9 -34t0 -35t-4 -25q-274 14 -541 -21t-535 -93q-42 -10 -103 -34t-125 -44t-123 -27t-99 19q-10 4 -17 11t-11 21zM856 2153q-14 33 0 107q54 4 110 -33t102 -90t75 -108 t31 -89t-29 -33t-107 63q-34 60 -72 84t-67 45t-43 54z" />
<glyph unicode="&#xc9;" horiz-adv-x="1864" d="M44 58q-14 12 8 28q24 90 52 173t58 164t63 164t71 175q12 24 -5 48t-37 48t-30 49t18 53q2 2 19 7t36 9t36 8t21 6t12 9t17 16l17 17t10 12q38 68 75 121t68 105t58 110t45 136q8 30 -14 38t-49 16t-46 24t-3 62q10 28 96 60t219 62t297 55t329 40t316 18t256 -11 t149 -48t-2 -92q-22 -6 -46 -1t-49 12t-51 13t-52 4q-120 -10 -236 -8t-230 2t-229 -9t-231 -41q-80 -22 -142 -79t-119 -143t-114 -199t-125 -247q28 -6 104 12t175 43t208 52t206 38t170 0t97 -59q2 -4 2 -14t-2 -14q-132 -20 -273 -36t-280 -40t-272 -65t-249 -113 q-96 -168 -171 -345t-133 -361q72 26 168 50t185 43t156 32t79 15q212 34 409 53t409 5q18 -4 25 -20t9 -34t0 -35t-4 -25q-274 14 -541 -21t-535 -93q-42 -10 -103 -34t-125 -44t-123 -27t-99 19q-10 4 -17 11t-11 21zM864 1901q4 35 38 93t86 112t114 93t122 35 q16 -74 -1 -109t-52 -59t-79 -52t-82 -88q-84 -60 -117 -60t-29 35z" />
<glyph unicode="&#xca;" horiz-adv-x="1864" d="M44 58q-14 12 8 28q24 90 52 173t58 164t63 164t71 175q12 24 -5 48t-37 48t-30 49t18 53q2 2 19 7t36 9t36 8t21 6t12 9t17 16l17 17t10 12q38 68 75 121t68 105t58 110t45 136q8 30 -14 38t-49 16t-46 24t-3 62q10 28 96 60t219 62t297 55t329 40t316 18t256 -11 t149 -48t-2 -92q-22 -6 -46 -1t-49 12t-51 13t-52 4q-120 -10 -236 -8t-230 2t-229 -9t-231 -41q-80 -22 -142 -79t-119 -143t-114 -199t-125 -247q28 -6 104 12t175 43t208 52t206 38t170 0t97 -59q2 -4 2 -14t-2 -14q-132 -20 -273 -36t-280 -40t-272 -65t-249 -113 q-96 -168 -171 -345t-133 -361q72 26 168 50t185 43t156 32t79 15q212 34 409 53t409 5q18 -4 25 -20t9 -34t0 -35t-4 -25q-274 14 -541 -21t-535 -93q-42 -10 -103 -34t-125 -44t-123 -27t-99 19q-10 4 -17 11t-11 21zM718 1996q12 22 44 48t68 53t67 54t43 49 q56 118 102 161t82 35t62 -54t42 -107t21 -125t-1 -107t-23 -52t-45 39q-6 8 -19 47t-31 79t-37 66t-35 8q-6 -12 -23 -40t-41 -63t-54 -69t-62 -58t-66 -32t-64 14q-14 8 -27 22t-3 32z" />
<glyph unicode="&#xcb;" horiz-adv-x="1864" d="M44 58q-14 12 8 28q24 90 52 173t58 164t63 164t71 175q12 24 -5 48t-37 48t-30 49t18 53q2 2 19 7t36 9t36 8t21 6t12 9t17 16l17 17t10 12q38 68 75 121t68 105t58 110t45 136q8 30 -14 38t-49 16t-46 24t-3 62q10 28 96 60t219 62t297 55t329 40t316 18t256 -11 t149 -48t-2 -92q-22 -6 -46 -1t-49 12t-51 13t-52 4q-120 -10 -236 -8t-230 2t-229 -9t-231 -41q-80 -22 -142 -79t-119 -143t-114 -199t-125 -247q28 -6 104 12t175 43t208 52t206 38t170 0t97 -59q2 -4 2 -14t-2 -14q-132 -20 -273 -36t-280 -40t-272 -65t-249 -113 q-96 -168 -171 -345t-133 -361q72 26 168 50t185 43t156 32t79 15q212 34 409 53t409 5q18 -4 25 -20t9 -34t0 -35t-4 -25q-274 14 -541 -21t-535 -93q-42 -10 -103 -34t-125 -44t-123 -27t-99 19q-10 4 -17 11t-11 21zM903 2040q17 52 57 82t87 24t73 -70q14 -38 -5 -79 t-54 -67t-75 -29t-64 33q-36 54 -19 106zM1261 2053q17 53 57 82t87 23t73 -70q14 -38 -5 -79t-54 -67t-75 -29t-64 35q-36 52 -19 105z" />
<glyph unicode="&#xcc;" horiz-adv-x="550" d="M27 134q3 32 10 64t13 56t8 28l564 1470q12 30 22 34t19 -9t15 -38t9 -54t1 -57t-10 -46q-80 -190 -161 -380t-156 -384t-139 -391t-110 -399q-18 -12 -33 -10t-25 13t-17 26t-9 27q-4 18 -1 50zM356 2113q-14 33 0 107q54 4 110 -33t102 -90t75 -108t31 -89t-29 -33 t-107 63q-34 60 -72 84t-67 45t-43 54z" />
<glyph unicode="&#xcd;" horiz-adv-x="550" d="M27 134q3 32 10 64t13 56t8 28l564 1470q12 30 22 34t19 -9t15 -38t9 -54t1 -57t-10 -46q-80 -190 -161 -380t-156 -384t-139 -391t-110 -399q-18 -12 -33 -10t-25 13t-17 26t-9 27q-4 18 -1 50zM294 1837q4 35 38 93t86 112t114 93t122 35q16 -74 -1 -109t-52 -59 t-79 -52t-82 -88q-84 -60 -117 -60t-29 35z" />
<glyph unicode="&#xce;" horiz-adv-x="550" d="M27 134q3 32 10 64t13 56t8 28l564 1470q12 30 22 34t19 -9t15 -38t9 -54t1 -57t-10 -46q-80 -190 -161 -380t-156 -384t-139 -391t-110 -399q-18 -12 -33 -10t-25 13t-17 26t-9 27q-4 18 -1 50zM366 1878q12 22 44 48t68 53t67 54t43 49q56 118 102 161t82 35t62 -54 t42 -107t21 -125t-1 -107t-23 -52t-45 39q-6 8 -19 47t-31 79t-37 66t-35 8q-6 -12 -23 -40t-41 -63t-54 -69t-62 -58t-66 -32t-64 14q-14 8 -27 22t-3 32z" />
<glyph unicode="&#xcf;" horiz-adv-x="550" d="M27 134q3 32 10 64t13 56t8 28l564 1470q12 30 22 34t19 -9t15 -38t9 -54t1 -57t-10 -46q-80 -190 -161 -380t-156 -384t-139 -391t-110 -399q-18 -12 -33 -10t-25 13t-17 26t-9 27q-4 18 -1 50zM341 2072q17 52 57 82t87 24t73 -70q14 -38 -5 -79t-54 -67t-75 -29 t-64 33q-36 54 -19 106zM699 2085q17 53 57 82t87 23t73 -70q14 -38 -5 -79t-54 -67t-75 -29t-64 35q-36 52 -19 105z" />
<glyph unicode="&#xd0;" horiz-adv-x="2058" d="M-59 911q29 27 96 51t163 42t202 30q40 90 76 168t56 130q-22 72 -8 129t50 103t85 85t99 77q142 104 307 162t337 64t341 -44t319 -164q120 -100 141 -217t-33 -241t-171 -252t-272 -251t-336 -236t-362 -209t-352 -169t-305 -116t-219 -52t-97 27q-14 38 4 67t52 47 q156 78 304 131t292 107t287 121t289 171q262 152 425 288t245 253t93 214t-32 172t-129 125t-199 74t-243 19t-259 -40t-247 -103t-208 -172q-2 -4 -7 -17t-9 -27t-8 -27t-4 -15q-26 -114 -51 -203t-53 -165q100 4 189 -2t153 -22t93 -44t9 -70q-26 0 -90 -4t-137 -8 t-137 -8t-90 -6q-14 -2 -30 -4t-32 -6q-36 -78 -74 -144t-76 -133t-76 -143t-74 -172q-44 -14 -64 3t-22 53t9 84t26 93t30 82t21 53q10 32 30 76t44 96q-54 -10 -106 -17t-100 -5t-88 14t-66 40q-30 30 -1 57z" />
<glyph unicode="&#xd1;" horiz-adv-x="2074" d="M26 28q0 22 2 30q16 78 60 172t96 187t103 177t81 142q14 30 46 91t70 139t81 164t83 164t70 140t46 92q58 60 101 54t78 -61t62 -148t53 -208t52 -241t57 -245t70 -223t91 -172q32 -16 78 32t101 139t116 215t122 259t119 271t106 253t85 204t57 123q18 32 36 31t32 -20 t20 -48t-2 -51q-80 -218 -150 -392t-144 -337t-158 -332t-192 -375q-40 -48 -78 -77t-76 -32t-77 23t-79 86q-82 146 -130 275t-81 256t-60 259t-67 284q-16 10 -51 -26t-81 -104t-100 -160t-109 -194t-109 -204t-99 -191t-79 -155t-50 -96q-12 -22 -32 -56t-38 -65t-32 -54 l-14 -23h-84q-2 6 -2 28zM724 1781q8 41 37 99t72 113t96 96t109 51t112 -22t104 -126q24 -106 65 -147t94 -38t117 40t131 85t136 96t135 76q14 -24 -15 -70t-85 -100t-131 -107t-152 -89t-148 -48t-119 18q-54 10 -88 39t-55 67t-33 77t-26 66t-31 37t-48 -11t-79 -79 t-122 -166q-50 -30 -67 -14t-9 57z" />
<glyph unicode="&#xd2;" horiz-adv-x="1318" d="M49 377q9 73 34 146t59 141t70 126q12 20 38 60t59 90t70 105t71 105t60 90t40 58q24 154 87 257t148 160t182 69t187 -17t164 -96t113 -169t33 -238t-75 -301t-210 -357t-375 -408q-50 -48 -118 -91t-144 -71t-154 -33t-146 25q-84 36 -128 90t-59 120t-6 139zM156 226 q26 -114 95 -141t164 10t208 128t225 212t215 263t178 282t115 268t27 221t-90 141t-233 28q-56 -50 -151 -146t-203 -219t-216 -264t-190 -281t-124 -270t-20 -232zM812 2131q-14 33 0 107q54 4 110 -33t102 -90t75 -108t31 -89t-29 -33t-107 63q-34 60 -72 84t-67 45 t-43 54z" />
<glyph unicode="&#xd3;" horiz-adv-x="1318" d="M49 377q9 73 34 146t59 141t70 126q12 20 38 60t59 90t70 105t71 105t60 90t40 58q24 154 87 257t148 160t182 69t187 -17t164 -96t113 -169t33 -238t-75 -301t-210 -357t-375 -408q-50 -48 -118 -91t-144 -71t-154 -33t-146 25q-84 36 -128 90t-59 120t-6 139zM156 226 q26 -114 95 -141t164 10t208 128t225 212t215 263t178 282t115 268t27 221t-90 141t-233 28q-56 -50 -151 -146t-203 -219t-216 -264t-190 -281t-124 -270t-20 -232zM730 1815q4 35 38 93t86 112t114 93t122 35q16 -74 -1 -109t-52 -59t-79 -52t-82 -88q-84 -60 -117 -60 t-29 35z" />
<glyph unicode="&#xd4;" horiz-adv-x="1318" d="M49 377q9 73 34 146t59 141t70 126q12 20 38 60t59 90t70 105t71 105t60 90t40 58q24 154 87 257t148 160t182 69t187 -17t164 -96t113 -169t33 -238t-75 -301t-210 -357t-375 -408q-50 -48 -118 -91t-144 -71t-154 -33t-146 25q-84 36 -128 90t-59 120t-6 139zM156 226 q26 -114 95 -141t164 10t208 128t225 212t215 263t178 282t115 268t27 221t-90 141t-233 28q-56 -50 -151 -146t-203 -219t-216 -264t-190 -281t-124 -270t-20 -232zM900 1920q12 22 44 48t68 53t67 54t43 49q56 118 102 161t82 35t62 -54t42 -107t21 -125t-1 -107t-23 -52 t-45 39q-6 8 -19 47t-31 79t-37 66t-35 8q-6 -12 -23 -40t-41 -63t-54 -69t-62 -58t-66 -32t-64 14q-14 8 -27 22t-3 32z" />
<glyph unicode="&#xd5;" horiz-adv-x="1318" d="M49 377q9 73 34 146t59 141t70 126q12 20 38 60t59 90t70 105t71 105t60 90t40 58q24 154 87 257t148 160t182 69t187 -17t164 -96t113 -169t33 -238t-75 -301t-210 -357t-375 -408q-50 -48 -118 -91t-144 -71t-154 -33t-146 25q-84 36 -128 90t-59 120t-6 139zM156 226 q26 -114 95 -141t164 10t208 128t225 212t215 263t178 282t115 268t27 221t-90 141t-233 28q-56 -50 -151 -146t-203 -219t-216 -264t-190 -281t-124 -270t-20 -232zM702 1831q8 41 37 99t72 113t96 96t109 51t112 -22t104 -126q24 -106 65 -147t94 -38t117 40t131 85 t136 96t135 76q14 -24 -15 -70t-85 -100t-131 -107t-152 -89t-148 -48t-119 18q-54 10 -88 39t-55 67t-33 77t-26 66t-31 37t-48 -11t-79 -79t-122 -166q-50 -30 -67 -14t-9 57z" />
<glyph unicode="&#xd6;" horiz-adv-x="1318" d="M49 377q9 73 34 146t59 141t70 126q12 20 38 60t59 90t70 105t71 105t60 90t40 58q24 154 87 257t148 160t182 69t187 -17t164 -96t113 -169t33 -238t-75 -301t-210 -357t-375 -408q-50 -48 -118 -91t-144 -71t-154 -33t-146 25q-84 36 -128 90t-59 120t-6 139zM156 226 q26 -114 95 -141t164 10t208 128t225 212t215 263t178 282t115 268t27 221t-90 141t-233 28q-56 -50 -151 -146t-203 -219t-216 -264t-190 -281t-124 -270t-20 -232zM829 2018q17 52 57 82t87 24t73 -70q14 -38 -5 -79t-54 -67t-75 -29t-64 33q-36 54 -19 106zM1187 2031 q17 53 57 82t87 23t73 -70q14 -38 -5 -79t-54 -67t-75 -29t-64 35q-36 52 -19 105z" />
<glyph unicode="&#xd7;" horiz-adv-x="1706" d="M213 292q21 32 64 65t100 67t105 70t78 75t20 81q-2 12 -15 57t-27 98t-27 98t-15 57q-2 6 -2 28t2 30q22 16 43 2t41 -46t39 -74t37 -82t34 -71t30 -41q44 30 96 71t102 85t95 85t75 71q52 26 73 22t22 -26t-14 -55t-32 -64t-33 -53l-16 -22q-148 -98 -216 -152t-82 -88 t9 -63t57 -75t63 -122t27 -208q-74 -22 -111 4t-53 76t-20 113t-13 114t-31 79t-73 8t-140 -98t-233 -240q-4 2 -12 10l-17 17t-17 18t-10 13q-24 34 -3 66z" />
<glyph unicode="&#xd8;" horiz-adv-x="1318" d="M49 377q9 73 34 146t59 141t70 126q12 20 38 60t59 90t70 105t71 105t60 90t40 58q24 154 87 257t148 160t182 69t187 -17t164 -96t113 -169t33 -238t-75 -301t-210 -357t-375 -408q-50 -48 -118 -91t-144 -71t-154 -33t-146 25q-84 36 -128 90t-59 120t-6 139zM156 226 q26 -114 95 -141t164 10t208 128t225 212t215 263t178 282t115 268t27 221t-90 141t-233 28q-56 -50 -151 -146t-203 -219t-216 -264t-190 -281t-124 -270t-20 -232zM465 -231q-19 125 9 297.5t85 368t136.5 403t162 403.5t161 364.5t136.5 290.5q30 24 52.5 11t34 -41.5 t15 -63.5t-1.5 -54q-11 -28 -34.5 -85t-52.5 -129.5t-62 -152t-62 -152t-52.5 -129.5t-32.5 -83q-14 -31 -43 -110t-60.5 -167.5t-58.5 -166t-36 -106.5q-14 -44 -35 -137.5t-45.5 -198.5t-55 -205t-62.5 -157q-7 -10 -21 -21.5t-30.5 -15.5t-29.5 2.5t-17 34.5z" />
<glyph unicode="&#xd9;" horiz-adv-x="1520" d="M82 471q10 139 52 293t101 303t125 284t123 237t96 162t43 58q20 -10 28 -27t9 -36t-2 -40t-5 -37q0 -4 -5 -12t-10 -18t-10 -18t-5 -10q-194 -426 -292 -715t-120 -462t21 -242t132 -55t213 98t262 217t282 302t272 354t230 373t158 358q4 4 14 15t14 11q56 -38 55 -119 t-45 -192t-126 -243t-187 -272t-228 -280t-249 -265t-249 -227t-230 -168t-190 -87t-131 17q-92 72 -124 188t-22 255zM820 2029q-14 33 0 107q54 4 110 -33t102 -90t75 -108t31 -89t-29 -33t-107 63q-34 60 -72 84t-67 45t-43 54z" />
<glyph unicode="&#xda;" horiz-adv-x="1520" d="M82 471q10 139 52 293t101 303t125 284t123 237t96 162t43 58q20 -10 28 -27t9 -36t-2 -40t-5 -37q0 -4 -5 -12t-10 -18t-10 -18t-5 -10q-194 -426 -292 -715t-120 -462t21 -242t132 -55t213 98t262 217t282 302t272 354t230 373t158 358q4 4 14 15t14 11q56 -38 55 -119 t-45 -192t-126 -243t-187 -272t-228 -280t-249 -265t-249 -227t-230 -168t-190 -87t-131 17q-92 72 -124 188t-22 255zM892 1817q4 35 38 93t86 112t114 93t122 35q16 -74 -1 -109t-52 -59t-79 -52t-82 -88q-84 -60 -117 -60t-29 35z" />
<glyph unicode="&#xdb;" horiz-adv-x="1520" d="M82 471q10 139 52 293t101 303t125 284t123 237t96 162t43 58q20 -10 28 -27t9 -36t-2 -40t-5 -37q0 -4 -5 -12t-10 -18t-10 -18t-5 -10q-194 -426 -292 -715t-120 -462t21 -242t132 -55t213 98t262 217t282 302t272 354t230 373t158 358q4 4 14 15t14 11q56 -38 55 -119 t-45 -192t-126 -243t-187 -272t-228 -280t-249 -265t-249 -227t-230 -168t-190 -87t-131 17q-92 72 -124 188t-22 255zM888 1950q12 22 44 48t68 53t67 54t43 49q56 118 102 161t82 35t62 -54t42 -107t21 -125t-1 -107t-23 -52t-45 39q-6 8 -19 47t-31 79t-37 66t-35 8 q-6 -12 -23 -40t-41 -63t-54 -69t-62 -58t-66 -32t-64 14q-14 8 -27 22t-3 32z" />
<glyph unicode="&#xdc;" horiz-adv-x="1520" d="M82 471q10 139 52 293t101 303t125 284t123 237t96 162t43 58q20 -10 28 -27t9 -36t-2 -40t-5 -37q0 -4 -5 -12t-10 -18t-10 -18t-5 -10q-194 -426 -292 -715t-120 -462t21 -242t132 -55t213 98t262 217t282 302t272 354t230 373t158 358q4 4 14 15t14 11q56 -38 55 -119 t-45 -192t-126 -243t-187 -272t-228 -280t-249 -265t-249 -227t-230 -168t-190 -87t-131 17q-92 72 -124 188t-22 255zM899 2122q17 52 57 82t87 24t73 -70q14 -38 -5 -79t-54 -67t-75 -29t-64 33q-36 54 -19 106zM1257 2135q17 53 57 82t87 23t73 -70q14 -38 -5 -79 t-54 -67t-75 -29t-64 35q-36 52 -19 105z" />
<glyph unicode="&#xdd;" horiz-adv-x="1004" d="M87 1689q7 19 53 -3q36 -32 87 -104t108 -161t116 -183t109 -168t88 -117t54 -31q20 38 52 110l72 162t85 190t90 192t88 170t79 124t62 53t38 -41q8 -36 -24 -130t-91 -226t-140 -293t-170 -333t-178 -346t-166 -333t-135 -291t-84 -222q-8 -26 -24 -49t-37 -33t-42 1 t-37 53q-30 74 -8 158t73 175t118 189t127 201t101 212t39 223q-10 24 -44 77t-82 125t-104 153t-107 161t-92 150t-61 118t-13 67zM468 1869q4 35 38 93t86 112t114 93t122 35q16 -74 -1 -109t-52 -59t-79 -52t-82 -88q-84 -60 -117 -60t-29 35z" />
<glyph unicode="&#xde;" horiz-adv-x="1502" d="M-174 -364q26 52 66 155t89 239t105 297t115 330t119 336t118 316t111 270t98 197t78 99t53 -25q38 -34 39 -77t-21 -95t-58 -114t-74 -135t-70 -158t-42 -183q210 160 370 237t272 91t176 -26t84 -115t-3 -173t-88 -201t-169 -201t-247 -170t-322 -110t-391 -22 q-2 2 -17 -57t-37 -149t-48 -194t-48 -194t-37 -149t-15 -57t-33 7t-72 12t-70 12t-31 7zM350 564q0 -32 4 -42q124 -6 249 20t236 77t202 124t150 159t79 183t-10 199q0 2 -11 3t-23 0t-23 -1h-13q-84 12 -171 -13t-172 -76t-163 -122t-143 -150t-114 -162t-73 -157 q-4 -10 -4 -42z" />
<glyph unicode="&#xdf;" horiz-adv-x="1660" d="M62 96q4 72 16 140t34 120q8 16 21 73t29 134t33 165t33 166t29 135t19 73q32 76 29 133t-12 108t-6 100t47 111q6 8 31 37t54 62t54 62t31 37q14 16 73 60t146 98t192 114t211 110t202 83t165 35t102 -34t11 -126q-22 -86 -73 -165t-119 -154t-145 -147t-151 -142 t-138 -141t-104 -145q230 -8 375 -45t220 -93t89 -128t-19 -150t-105 -157t-168 -150t-208 -131t-226 -98t-222 -50t-194 12l20 78q240 0 421 56t303 140t186 184t68 188t-52 152t-173 74t-295 -44t-418 -202l50 274q80 68 185 157t215 188t214 200t181 190t118 161t23 114 q-72 12 -153 -9t-163 -65t-164 -103t-155 -122t-135 -126t-106 -111q-88 -192 -172 -423t-143 -477t-80 -497t15 -485q-42 2 -72 37t-47 91t-24 126t-3 142z" />
<glyph unicode="&#xe0;" horiz-adv-x="1754" d="M75 206q-7 98 27 219t101 255t154 255t189 217t205 143t201 33t178 -114q50 -62 60 -126t-3 -130t-40 -134t-53 -138t-42 -143t-6 -147q10 -72 54 -99t110 -22t146 34t162 71t160 89t138 87t97 67l37 27q70 14 79 -10t-27 -69t-109 -104t-166 -114t-198 -100t-205 -62 t-188 2t-146 89q-26 30 -41 61t-43 53q-38 -36 -90 -92t-114 -112t-131 -106t-141 -76t-146 -18t-142 66q-60 50 -67 148zM170 142q16 -60 66 -70t118 19t149 92t160 152t151 197t123 227t75 242t6 243q-44 36 -107 19t-136 -71t-150 -138t-149 -183t-135 -206t-106 -205 t-62 -182t-3 -136zM830 1681q-14 33 0 107q54 4 110 -33t102 -90t75 -108t31 -89t-29 -33t-107 63q-34 60 -72 84t-67 45t-43 54z" />
<glyph unicode="&#xe1;" horiz-adv-x="1754" d="M75 206q-7 98 27 219t101 255t154 255t189 217t205 143t201 33t178 -114q50 -62 60 -126t-3 -130t-40 -134t-53 -138t-42 -143t-6 -147q10 -72 54 -99t110 -22t146 34t162 71t160 89t138 87t97 67l37 27q70 14 79 -10t-27 -69t-109 -104t-166 -114t-198 -100t-205 -62 t-188 2t-146 89q-26 30 -41 61t-43 53q-38 -36 -90 -92t-114 -112t-131 -106t-141 -76t-146 -18t-142 66q-60 50 -67 148zM170 142q16 -60 66 -70t118 19t149 92t160 152t151 197t123 227t75 242t6 243q-44 36 -107 19t-136 -71t-150 -138t-149 -183t-135 -206t-106 -205 t-62 -182t-3 -136zM518 1385q4 35 38 93t86 112t114 93t122 35q16 -74 -1 -109t-52 -59t-79 -52t-82 -88q-84 -60 -117 -60t-29 35z" />
<glyph unicode="&#xe2;" horiz-adv-x="1754" d="M75 206q-7 98 27 219t101 255t154 255t189 217t205 143t201 33t178 -114q50 -62 60 -126t-3 -130t-40 -134t-53 -138t-42 -143t-6 -147q10 -72 54 -99t110 -22t146 34t162 71t160 89t138 87t97 67l37 27q70 14 79 -10t-27 -69t-109 -104t-166 -114t-198 -100t-205 -62 t-188 2t-146 89q-26 30 -41 61t-43 53q-38 -36 -90 -92t-114 -112t-131 -106t-141 -76t-146 -18t-142 66q-60 50 -67 148zM170 142q16 -60 66 -70t118 19t149 92t160 152t151 197t123 227t75 242t6 243q-44 36 -107 19t-136 -71t-150 -138t-149 -183t-135 -206t-106 -205 t-62 -182t-3 -136zM568 1660q12 22 44 48t68 53t67 54t43 49q56 118 102 161t82 35t62 -54t42 -107t21 -125t-1 -107t-23 -52t-45 39q-6 8 -19 47t-31 79t-37 66t-35 8q-6 -12 -23 -40t-41 -63t-54 -69t-62 -58t-66 -32t-64 14q-14 8 -27 22t-3 32z" />
<glyph unicode="&#xe3;" horiz-adv-x="1754" d="M75 206q-7 98 27 219t101 255t154 255t189 217t205 143t201 33t178 -114q50 -62 60 -126t-3 -130t-40 -134t-53 -138t-42 -143t-6 -147q10 -72 54 -99t110 -22t146 34t162 71t160 89t138 87t97 67l37 27q70 14 79 -10t-27 -69t-109 -104t-166 -114t-198 -100t-205 -62 t-188 2t-146 89q-26 30 -41 61t-43 53q-38 -36 -90 -92t-114 -112t-131 -106t-141 -76t-146 -18t-142 66q-60 50 -67 148zM170 142q16 -60 66 -70t118 19t149 92t160 152t151 197t123 227t75 242t6 243q-44 36 -107 19t-136 -71t-150 -138t-149 -183t-135 -206t-106 -205 t-62 -182t-3 -136zM398 1527q8 41 37 99t72 113t96 96t109 51t112 -22t104 -126q24 -106 65 -147t94 -38t117 40t131 85t136 96t135 76q14 -24 -15 -70t-85 -100t-131 -107t-152 -89t-148 -48t-119 18q-54 10 -88 39t-55 67t-33 77t-26 66t-31 37t-48 -11t-79 -79t-122 -166 q-50 -30 -67 -14t-9 57z" />
<glyph unicode="&#xe4;" horiz-adv-x="1754" d="M75 206q-7 98 27 219t101 255t154 255t189 217t205 143t201 33t178 -114q50 -62 60 -126t-3 -130t-40 -134t-53 -138t-42 -143t-6 -147q10 -72 54 -99t110 -22t146 34t162 71t160 89t138 87t97 67l37 27q70 14 79 -10t-27 -69t-109 -104t-166 -114t-198 -100t-205 -62 t-188 2t-146 89q-26 30 -41 61t-43 53q-38 -36 -90 -92t-114 -112t-131 -106t-141 -76t-146 -18t-142 66q-60 50 -67 148zM170 142q16 -60 66 -70t118 19t149 92t160 152t151 197t123 227t75 242t6 243q-44 36 -107 19t-136 -71t-150 -138t-149 -183t-135 -206t-106 -205 t-62 -182t-3 -136zM567 1514q17 52 57 82t87 24t73 -70q14 -38 -5 -79t-54 -67t-75 -29t-64 33q-36 54 -19 106zM925 1527q17 53 57 82t87 23t73 -70q14 -38 -5 -79t-54 -67t-75 -29t-64 35q-36 52 -19 105z" />
<glyph unicode="&#xe5;" horiz-adv-x="1754" d="M75 206q-7 98 27 219t101 255t154 255t189 217t205 143t201 33t178 -114q50 -62 60 -126t-3 -130t-40 -134t-53 -138t-42 -143t-6 -147q10 -72 54 -99t110 -22t146 34t162 71t160 89t138 87t97 67l37 27q70 14 79 -10t-27 -69t-109 -104t-166 -114t-198 -100t-205 -62 t-188 2t-146 89q-26 30 -41 61t-43 53q-38 -36 -90 -92t-114 -112t-131 -106t-141 -76t-146 -18t-142 66q-60 50 -67 148zM170 142q16 -60 66 -70t118 19t149 92t160 152t151 197t123 227t75 242t6 243q-44 36 -107 19t-136 -71t-150 -138t-149 -183t-135 -206t-106 -205 t-62 -182t-3 -136zM586 1376q-16 42 1 91t58 99t90 92t100 70t89 32q124 16 178 -21t55 -98t-43 -133t-114 -127t-159 -80t-177 9q-62 24 -78 66zM700 1460q12 -66 62 -72t110 22t113 77t71 91t-15 65t-145 -1q-32 -28 -63 -47t-58 -38t-47 -41t-28 -56z" />
<glyph unicode="&#xe6;" horiz-adv-x="2840" d="M75 206q-7 98 27 219t101 255t154 255t189 217t205 143t201 33t178 -114q50 -62 60 -126t-3 -130t-40 -134t-53 -138t-42 -143t-6 -147q10 -72 58 -103t119 -34t159 16t178 51t176 70t152 70t107 54l41 22q22 -6 0 -37t-75 -74t-132 -91t-169 -89t-187 -69t-187 -30 t-167 27t-129 103q-22 32 -39 62t-45 52q-38 -36 -90 -92t-114 -112t-131 -106t-141 -76t-146 -18t-142 66q-60 50 -67 148zM170 142q16 -60 66 -70t118 19t149 92t160 152t151 197t123 227t75 242t6 243q-44 36 -107 19t-136 -71t-150 -138t-149 -183t-135 -206t-106 -205 t-62 -182t-3 -136zM943 557q9 69 27 131q76 80 170 183t199 204t219 187t230 132q40 16 64 -3t34 -58t9 -92t-9 -102t-20 -90t-26 -55q-22 -26 -77 -60t-128 -73t-155 -82t-157 -87t-136 -90t-92 -90t-24 -85t69 -77q84 -10 206 9t248 51t243 66t193 52l30 -28 q-36 -48 -106 -91t-157 -79t-186 -61t-192 -39t-174 -13t-135 19q-76 26 -114 76t-50 113t-3 132zM1258 838q40 -8 104 12t132 54t131 78t100 86t37 75t-54 47q-2 4 -37 -20t-87 -63t-110 -85t-108 -86t-81 -68t-27 -30z" />
<glyph unicode="&#xe7;" horiz-adv-x="1398" d="M65 363q19 113 86 240t159 242t195 208t193 140t155 37t81 -100q6 -40 -10 -88t-44 -92t-64 -80t-69 -54t-60 -12t-35 44q30 52 67 101t73 95q-14 28 -57 13t-102 -60t-126 -113t-129 -148t-111 -167t-71 -167t-11 -148t71 -112q82 -6 189 17t220 60t224 82t202 82 t155 58t84 11q36 -18 21 -50t-68 -71t-136 -81t-180 -81t-201 -72t-201 -54t-178 -26t-131 11q-128 42 -169 132t-22 203zM474 -394q-8 24 6 36t42 20t63 13t68 12t60 18t39 31q16 30 5 45t-35 22t-56 10t-60 10t-45 23t-13 50q-10 56 -7 103t14 66t30 0t41 -93 q10 -32 38 -49t63 -28t71 -19t62 -20t37 -33t-5 -59q-4 -20 -47 -62t-103 -79t-126 -55t-114 10q-6 2 -16 13t-12 15z" />
<glyph unicode="&#xe8;" horiz-adv-x="1088" d="M45 349q9 69 27 131q76 80 170 183t199 204t219 187t230 132q40 16 64 -3t34 -58t9 -92t-9 -102t-20 -90t-26 -55q-22 -26 -77 -60t-128 -73t-155 -82t-157 -87t-136 -90t-92 -90t-24 -85t69 -77q84 -10 206 9t248 51t243 66t193 52l30 -28q-36 -48 -106 -91t-157 -79 t-186 -61t-192 -39t-174 -13t-135 19q-76 26 -114 76t-50 113t-3 132zM342 1515q-14 33 0 107q54 4 110 -33t102 -90t75 -108t31 -89t-29 -33t-107 63q-34 60 -72 84t-67 45t-43 54zM360 630q40 -8 104 12t132 54t131 78t100 86t37 75t-54 47q-2 4 -37 -20t-87 -63t-110 -85 t-108 -86t-81 -68t-27 -30z" />
<glyph unicode="&#xe9;" horiz-adv-x="1088" d="M45 349q9 69 27 131q76 80 170 183t199 204t219 187t230 132q40 16 64 -3t34 -58t9 -92t-9 -102t-20 -90t-26 -55q-22 -26 -77 -60t-128 -73t-155 -82t-157 -87t-136 -90t-92 -90t-24 -85t69 -77q84 -10 206 9t248 51t243 66t193 52l30 -28q-36 -48 -106 -91t-157 -79 t-186 -61t-192 -39t-174 -13t-135 19q-76 26 -114 76t-50 113t-3 132zM360 630q40 -8 104 12t132 54t131 78t100 86t37 75t-54 47q-2 4 -37 -20t-87 -63t-110 -85t-108 -86t-81 -68t-27 -30zM394 1051q4 35 38 93t86 112t114 93t122 35q16 -74 -1 -109t-52 -59t-79 -52 t-82 -88q-84 -60 -117 -60t-29 35z" />
<glyph unicode="&#xea;" horiz-adv-x="1088" d="M45 349q9 69 27 131q76 80 170 183t199 204t219 187t230 132q40 16 64 -3t34 -58t9 -92t-9 -102t-20 -90t-26 -55q-22 -26 -77 -60t-128 -73t-155 -82t-157 -87t-136 -90t-92 -90t-24 -85t69 -77q84 -10 206 9t248 51t243 66t193 52l30 -28q-36 -48 -106 -91t-157 -79 t-186 -61t-192 -39t-174 -13t-135 19q-76 26 -114 76t-50 113t-3 132zM244 1522q12 22 44 48t68 53t67 54t43 49q56 118 102 161t82 35t62 -54t42 -107t21 -125t-1 -107t-23 -52t-45 39q-6 8 -19 47t-31 79t-37 66t-35 8q-6 -12 -23 -40t-41 -63t-54 -69t-62 -58t-66 -32 t-64 14q-14 8 -27 22t-3 32zM360 630q40 -8 104 12t132 54t131 78t100 86t37 75t-54 47q-2 4 -37 -20t-87 -63t-110 -85t-108 -86t-81 -68t-27 -30z" />
<glyph unicode="&#xeb;" horiz-adv-x="1088" d="M45 349q9 69 27 131q76 80 170 183t199 204t219 187t230 132q40 16 64 -3t34 -58t9 -92t-9 -102t-20 -90t-26 -55q-22 -26 -77 -60t-128 -73t-155 -82t-157 -87t-136 -90t-92 -90t-24 -85t69 -77q84 -10 206 9t248 51t243 66t193 52l30 -28q-36 -48 -106 -91t-157 -79 t-186 -61t-192 -39t-174 -13t-135 19q-76 26 -114 76t-50 113t-3 132zM293 1336q17 52 57 82t87 24t73 -70q14 -38 -5 -79t-54 -67t-75 -29t-64 33q-36 54 -19 106zM360 630q40 -8 104 12t132 54t131 78t100 86t37 75t-54 47q-2 4 -37 -20t-87 -63t-110 -85t-108 -86 t-81 -68t-27 -30zM651 1349q17 53 57 82t87 23t73 -70q14 -38 -5 -79t-54 -67t-75 -29t-64 35q-36 52 -19 105z" />
<glyph unicode="&#xec;" horiz-adv-x="634" d="M28 28q102 328 186 522t139 272t76 51t-3 -140t-100 -301t-214 -432q-20 -8 -47 -3t-37 31zM136 1253q-14 33 0 107q54 4 110 -33t102 -90t75 -108t31 -89t-29 -33t-107 63q-34 60 -72 84t-67 45t-43 54z" />
<glyph unicode="&#xed;" horiz-adv-x="634" d="M28 28q10 -26 37 -31t47 3q138 244 214 432t100 301t3 140t-76 -51t-139 -272t-186 -522zM168 1051q4 35 38 93t86 112t114 93t122 35q16 -74 -1 -109t-52 -59t-79 -52t-82 -88q-84 -60 -117 -60t-29 35z" />
<glyph unicode="&#xee;" horiz-adv-x="634" d="M-2 1242q12 22 44 48t68 53t67 54t43 49q56 118 102 161t82 35t62 -54t42 -107t21 -125t-1 -107t-23 -52t-45 39q-6 8 -19 47t-31 79t-37 66t-35 8q-6 -12 -23 -40t-41 -63t-54 -69t-62 -58t-66 -32t-64 14q-14 8 -27 22t-3 32zM28 28q102 328 186 522t139 272t76 51 t-3 -140t-100 -301t-214 -432q-20 -8 -47 -3t-37 31z" />
<glyph unicode="&#xef;" horiz-adv-x="634" d="M28 28q102 328 186 522t139 272t76 51t-3 -140t-100 -301t-214 -432q-20 -8 -47 -3t-37 31zM49 1170q17 52 57 82t87 24t73 -70q14 -38 -5 -79t-54 -67t-75 -29t-64 33q-36 54 -19 106zM407 1183q17 53 57 82t87 23t73 -70q14 -38 -5 -79t-54 -67t-75 -29t-64 35 q-36 52 -19 105z" />
<glyph unicode="&#xf0;" horiz-adv-x="786" d="M21 543q9 67 55 113q60 46 128 35t140 -50t143 -93t137 -94q10 28 -2 69t-37 86t-61 93t-74 92q-28 -26 -54 -45t-48 -31q-34 -18 -21 27t55 121q-58 56 -96 78q-64 60 -73 96t14 47t63 -4t76 -53q16 -20 44 -53t44 -55l144 136q32 -22 46 -33t5 -28t-42 -48t-93 -93 q62 -74 120 -177t94 -209t44 -202t-26 -156q-62 -88 -134 -122t-146 -27t-144 48t-128 103t-101 137t-62 150t-10 142zM120 542q-12 -50 9 -118t63 -136t97 -126t113 -89t111 -26t89 65q16 42 5 96t-42 107t-79 102t-107 82t-126 46t-133 -3z" />
<glyph unicode="&#xf1;" horiz-adv-x="1440" d="M44 170q0 2 17 38t46 95t67 133t79 152t81 154t73 136t57 98t32 42q50 -34 52 -75t-13 -86t-33 -90t-6 -89q42 28 112 77t155 101t175 101t171 79t144 32t93 -38t19 -131t-79 -249q-4 -12 -20 -47t-36 -81t-43 -98t-44 -98t-36 -81t-19 -47q-4 -10 -7 -37t-9 -58t-16 -60 t-24 -43q-8 -8 -17 -5t-18 9t-15 13t-8 11q-8 82 14 163t58 160t77 158t72 155t43 150t-10 146q-64 22 -145 -11t-171 -99t-186 -155t-187 -180t-174 -173t-150 -136t-112 -68t-59 32zM194 1235q8 41 37 99t72 113t96 96t109 51t112 -22t104 -126q24 -106 65 -147t94 -38 t117 40t131 85t136 96t135 76q14 -24 -15 -70t-85 -100t-131 -107t-152 -89t-148 -48t-119 18q-54 10 -88 39t-55 67t-33 77t-26 66t-31 37t-48 -11t-79 -79t-122 -166q-50 -30 -67 -14t-9 57z" />
<glyph unicode="&#xf2;" d="M68 155q-26 85 1 190t94 215t149 203t166 156t144 71q156 20 244 -21t121 -119t18 -181t-66 -209t-132 -203t-180 -162t-209 -88t-220 21q-104 42 -130 127zM170 170q16 -64 62 -82t109 1t137 66t146 111t137 140t109 149t62 139t-3 113t-87 67t-190 2q-36 -32 -90 -79 t-114 -102t-117 -119t-99 -131t-61 -137t-1 -138zM512 1389q-14 33 0 107q54 4 110 -33t102 -90t75 -108t31 -89t-29 -33t-107 63q-34 60 -72 84t-67 45t-43 54z" />
<glyph unicode="&#xf3;" d="M68 155q-26 85 1 190t94 215t149 203t166 156t144 71q156 20 244 -21t121 -119t18 -181t-66 -209t-132 -203t-180 -162t-209 -88t-220 21q-104 42 -130 127zM170 170q16 -64 62 -82t109 1t137 66t146 111t137 140t109 149t62 139t-3 113t-87 67t-190 2q-36 -32 -90 -79 t-114 -102t-117 -119t-99 -131t-61 -137t-1 -138zM388 1051q4 35 38 93t86 112t114 93t122 35q16 -74 -1 -109t-52 -59t-79 -52t-82 -88q-84 -60 -117 -60t-29 35z" />
<glyph unicode="&#xf4;" d="M68 155q-26 85 1 190t94 215t149 203t166 156t144 71q156 20 244 -21t121 -119t18 -181t-66 -209t-132 -203t-180 -162t-209 -88t-220 21q-104 42 -130 127zM170 170q16 -64 62 -82t109 1t137 66t146 111t137 140t109 149t62 139t-3 113t-87 67t-190 2q-36 -32 -90 -79 t-114 -102t-117 -119t-99 -131t-61 -137t-1 -138zM374 1380q12 22 44 48t68 53t67 54t43 49q56 118 102 161t82 35t62 -54t42 -107t21 -125t-1 -107t-23 -52t-45 39q-6 8 -19 47t-31 79t-37 66t-35 8q-6 -12 -23 -40t-41 -63t-54 -69t-62 -58t-66 -32t-64 14q-14 8 -27 22 t-3 32z" />
<glyph unicode="&#xf5;" d="M68 155q-26 85 1 190t94 215t149 203t166 156t144 71q156 20 244 -21t121 -119t18 -181t-66 -209t-132 -203t-180 -162t-209 -88t-220 21q-104 42 -130 127zM170 170q16 -64 62 -82t109 1t137 66t146 111t137 140t109 149t62 139t-3 113t-87 67t-190 2q-36 -32 -90 -79 t-114 -102t-117 -119t-99 -131t-61 -137t-1 -138zM210 1161q8 41 37 99t72 113t96 96t109 51t112 -22t104 -126q24 -106 65 -147t94 -38t117 40t131 85t136 96t135 76q14 -24 -15 -70t-85 -100t-131 -107t-152 -89t-148 -48t-119 18q-54 10 -88 39t-55 67t-33 77t-26 66 t-31 37t-48 -11t-79 -79t-122 -166q-50 -30 -67 -14t-9 57z" />
<glyph unicode="&#xf6;" d="M68 155q-26 85 1 190t94 215t149 203t166 156t144 71q156 20 244 -21t121 -119t18 -181t-66 -209t-132 -203t-180 -162t-209 -88t-220 21q-104 42 -130 127zM170 170q16 -64 62 -82t109 1t137 66t146 111t137 140t109 149t62 139t-3 113t-87 67t-190 2q-36 -32 -90 -79 t-114 -102t-117 -119t-99 -131t-61 -137t-1 -138zM381 1224q17 52 57 82t87 24t73 -70q14 -38 -5 -79t-54 -67t-75 -29t-64 33q-36 54 -19 106zM739 1237q17 53 57 82t87 23t73 -70q14 -38 -5 -79t-54 -67t-75 -29t-64 35q-36 52 -19 105z" />
<glyph unicode="&#xf7;" horiz-adv-x="1538" d="M107 520q-23 18 31 86q2 8 54 19t135 24t190 25t219 20t220 12t195 1t143 -15t64 -36q4 -6 4 -28t-4 -30q-46 -4 -136 -10t-202 -14t-234 -17t-234 -17t-203 -15t-137 -9q-82 -14 -105 4zM550 284q16 22 44 29t58 0t42 -31q22 -42 9 -71t-40 -38t-60 4t-51 51 q-18 34 -2 56zM553 959q-3 29 11 50t41 26t61 -17q32 -22 36 -55t-11 -57t-45 -29t-64 29q-26 24 -29 53z" />
<glyph unicode="&#xf8;" d="M68 155q-26 85 1 190t94 215t149 203t166 156t144 71q156 20 244 -21t121 -119t18 -181t-66 -209t-132 -203t-180 -162t-209 -88t-220 21q-104 42 -130 127zM170 170q16 -64 62 -82t109 1t137 66t146 111t137 140t109 149t62 139t-3 113t-87 67t-190 2q-36 -32 -90 -79 t-114 -102t-117 -119t-99 -131t-61 -137t-1 -138zM234 -260q-16 96 8 229t73 284t117 311t139 311t138 281t117 224q26 18 45 8t29 -32t13 -49t-1 -41l-30 -66t-45 -100t-53 -117t-53 -117t-45 -100t-28 -64q-12 -24 -37 -85t-52 -129t-50 -128t-31 -82q-12 -34 -30 -106 t-39 -153t-47 -158t-54 -121q-6 -8 -18 -17t-26 -12t-25 2t-15 27z" />
<glyph unicode="&#xf9;" horiz-adv-x="1440" d="M58 198q-14 38 8 108t65 156t98 177t110 170t101 135t70 74q58 -28 52 -84t-46 -128t-101 -155t-114 -165t-86 -157t-17 -131q40 -16 97 6t123 71t139 118t144 146t139 154t125 144t100 115t65 66q52 -26 52 -82t-28 -129t-70 -157t-72 -166t-35 -157t41 -129l84 -100 h254q18 0 7 -15t-30 -33t-39 -34t-22 -16q-32 -6 -56 -6t-47 4t-45 11t-48 19q-70 26 -110 72t-62 103t-33 121t-23 128q-18 12 -55 -12t-87 -65t-110 -94t-123 -100t-125 -82t-118 -40t-100 25t-72 114zM538 1253q-14 33 0 107q54 4 110 -33t102 -90t75 -108t31 -89 t-29 -33t-107 63q-34 60 -72 84t-67 45t-43 54z" />
<glyph unicode="&#xfa;" horiz-adv-x="1440" d="M58 198q-14 38 8 108t65 156t98 177t110 170t101 135t70 74q58 -28 52 -84t-46 -128t-101 -155t-114 -165t-86 -157t-17 -131q40 -16 97 6t123 71t139 118t144 146t139 154t125 144t100 115t65 66q52 -26 52 -82t-28 -129t-70 -157t-72 -166t-35 -157t41 -129l84 -100 h254q18 0 7 -15t-30 -33t-39 -34t-22 -16q-32 -6 -56 -6t-47 4t-45 11t-48 19q-70 26 -110 72t-62 103t-33 121t-23 128q-18 12 -55 -12t-87 -65t-110 -94t-123 -100t-125 -82t-118 -40t-100 25t-72 114zM674 1045q4 35 38 93t86 112t114 93t122 35q16 -74 -1 -109t-52 -59 t-79 -52t-82 -88q-84 -60 -117 -60t-29 35z" />
<glyph unicode="&#xfb;" horiz-adv-x="1440" d="M58 198q-14 38 8 108t65 156t98 177t110 170t101 135t70 74q58 -28 52 -84t-46 -128t-101 -155t-114 -165t-86 -157t-17 -131q40 -16 97 6t123 71t139 118t144 146t139 154t125 144t100 115t65 66q52 -26 52 -82t-28 -129t-70 -157t-72 -166t-35 -157t41 -129l84 -100 h254q18 0 7 -15t-30 -33t-39 -34t-22 -16q-32 -6 -56 -6t-47 4t-45 11t-48 19q-70 26 -110 72t-62 103t-33 121t-23 128q-18 12 -55 -12t-87 -65t-110 -94t-123 -100t-125 -82t-118 -40t-100 25t-72 114zM524 1388q12 22 44 48t68 53t67 54t43 49q56 118 102 161t82 35 t62 -54t42 -107t21 -125t-1 -107t-23 -52t-45 39q-6 8 -19 47t-31 79t-37 66t-35 8q-6 -12 -23 -40t-41 -63t-54 -69t-62 -58t-66 -32t-64 14q-14 8 -27 22t-3 32z" />
<glyph unicode="&#xfc;" horiz-adv-x="1440" d="M58 198q-14 38 8 108t65 156t98 177t110 170t101 135t70 74q58 -28 52 -84t-46 -128t-101 -155t-114 -165t-86 -157t-17 -131q40 -16 97 6t123 71t139 118t144 146t139 154t125 144t100 115t65 66q52 -26 52 -82t-28 -129t-70 -157t-72 -166t-35 -157t41 -129l84 -100 h254q18 0 7 -15t-30 -33t-39 -34t-22 -16q-32 -6 -56 -6t-47 4t-45 11t-48 19q-70 26 -110 72t-62 103t-33 121t-23 128q-18 12 -55 -12t-87 -65t-110 -94t-123 -100t-125 -82t-118 -40t-100 25t-72 114zM513 1274q17 52 57 82t87 24t73 -70q14 -38 -5 -79t-54 -67t-75 -29 t-64 33q-36 54 -19 106zM871 1287q17 53 57 82t87 23t73 -70q14 -38 -5 -79t-54 -67t-75 -29t-64 35q-36 52 -19 105z" />
<glyph unicode="&#xfd;" horiz-adv-x="1102" d="M-424 -852q24 72 67 152t90 149t69 99q20 26 62 82t95 125t111 146t111 147t95 125t62 81q20 22 -1 70t-62 112t-92 140t-92 155t-62 156t-1 145q26 20 60 -24t70 -120t75 -167t77 -165t74 -116t68 -18q64 48 127 122t120 154t109 157t96 133q18 22 35 31t51 -3 q22 -8 2 -59t-71 -136t-127 -197t-167 -238t-191 -262t-199 -269t-190 -258t-165 -230t-125 -183t-69 -118q-10 -22 -21 -45t-33 -39q-4 2 -13 10t-18 17t-17 18t-10 13q-24 36 0 108zM402 1051q4 35 38 93t86 112t114 93t122 35q16 -74 -1 -109t-52 -59t-79 -52t-82 -88 q-84 -60 -117 -60t-29 35z" />
<glyph unicode="&#xfe;" horiz-adv-x="1354" d="M-118 -940q12 220 64 469t123 514t154 540t156 546t128 531t71 498q42 6 78 2t59 -33t29 -87t-11 -160t-61 -254t-122 -366q254 88 414 79t239 -82t86 -194t-43 -256t-147 -268t-227 -230t-285 -141t-319 -4q-66 -192 -100 -323t-48 -224t-17 -159t-8 -125t-19 -125 t-50 -158q-6 -10 -28 -18t-47 -8t-46 8t-23 28zM356 282q84 -30 177 -10t184 74t174 135t148 173t105 186t46 176t-28 143t-118 85q-172 -16 -280 -64t-173 -120t-98 -162t-52 -192t-35 -210t-50 -214z" />
<glyph unicode="&#xff;" horiz-adv-x="1102" d="M-424 -852q24 72 67 152t90 149t69 99q20 26 62 82t95 125t111 146t111 147t95 125t62 81q20 22 -1 70t-62 112t-92 140t-92 155t-62 156t-1 145q26 20 60 -24t70 -120t75 -167t77 -165t74 -116t68 -18q64 48 127 122t120 154t109 157t96 133q18 22 35 31t51 -3 q22 -8 2 -59t-71 -136t-127 -197t-167 -238t-191 -262t-199 -269t-190 -258t-165 -230t-125 -183t-69 -118q-10 -22 -21 -45t-33 -39q-4 2 -13 10t-18 17t-17 18t-10 13q-24 36 0 108zM281 1170q17 52 57 82t87 24t73 -70q14 -38 -5 -79t-54 -67t-75 -29t-64 33 q-36 54 -19 106zM639 1183q17 53 57 82t87 23t73 -70q14 -38 -5 -79t-54 -67t-75 -29t-64 35q-36 52 -19 105z" />
<glyph unicode="&#x152;" horiz-adv-x="2876" d="M49 377q9 73 34 146t59 141t70 126q12 20 38 60t59 90t70 105t71 105t60 90t40 58q24 154 87 257t148 160t182 69t187 -17t164 -96t113 -169t33 -238t-75 -301t-210 -357t-375 -408q-50 -48 -118 -91t-144 -71t-154 -33t-146 25q-84 36 -128 90t-59 120t-6 139zM156 226 q26 -114 95 -141t164 10t208 128t225 212t215 263t178 282t115 268t27 221t-90 141t-233 28q-56 -50 -151 -146t-203 -219t-216 -264t-190 -281t-124 -270t-20 -232zM1050 40q-14 12 8 28q24 90 52 173t58 164t63 164t71 175q12 24 -5 48t-37 48t-30 49t18 53q2 2 19 7t36 9 t36 8t21 6t12 9t17 16l17 17t10 12q38 68 75 121t68 105t58 110t45 136q8 30 -14 38t-49 16t-46 24t-3 62q10 28 96 60t219 62t297 55t329 40t316 18t256 -11t149 -48t-2 -92q-22 -6 -46 -1t-49 12t-51 13t-52 4q-120 -10 -236 -8t-230 2t-229 -9t-231 -41q-80 -22 -142 -79 t-119 -143t-114 -199t-125 -247q28 -6 104 12t175 43t208 52t206 38t170 0t97 -59q2 -4 2 -14t-2 -14q-132 -20 -273 -36t-280 -40t-272 -65t-249 -113q-96 -168 -171 -345t-133 -361q72 26 168 50t185 43t156 32t79 15q212 34 409 53t409 5q18 -4 25 -20t9 -34t0 -35 t-4 -25q-274 14 -541 -21t-535 -93q-42 -10 -103 -34t-125 -44t-123 -27t-99 19q-10 4 -17 11t-11 21z" />
<glyph unicode="&#x153;" horiz-adv-x="1984" d="M68 155q-26 85 1 190t94 215t149 203t166 156t144 71q156 20 244 -21t121 -119t18 -181t-66 -209t-132 -203t-180 -162t-209 -88t-220 21q-104 42 -130 127zM170 170q16 -64 62 -82t109 1t137 66t146 111t137 140t109 149t62 139t-3 113t-87 67t-190 2q-36 -32 -90 -79 t-114 -102t-117 -119t-99 -131t-61 -137t-1 -138zM811 349q9 69 27 131q76 80 170 183t199 204t219 187t230 132q40 16 64 -3t34 -58t9 -92t-9 -102t-20 -90t-26 -55q-22 -26 -77 -60t-128 -73t-155 -82t-157 -87t-136 -90t-92 -90t-24 -85t69 -77q84 -10 206 9t248 51 t243 66t193 52l30 -28q-36 -48 -106 -91t-157 -79t-186 -61t-192 -39t-174 -13t-135 19q-76 26 -114 76t-50 113t-3 132zM1126 630q40 -8 104 12t132 54t131 78t100 86t37 75t-54 47q-2 4 -37 -20t-87 -63t-110 -85t-108 -86t-81 -68t-27 -30z" />
<glyph unicode="&#x178;" horiz-adv-x="1004" d="M87 1689q7 19 53 -3q36 -32 87 -104t108 -161t116 -183t109 -168t88 -117t54 -31q20 38 52 110l72 162t85 190t90 192t88 170t79 124t62 53t38 -41q8 -36 -24 -130t-91 -226t-140 -293t-170 -333t-178 -346t-166 -333t-135 -291t-84 -222q-8 -26 -24 -49t-37 -33t-42 1 t-37 53q-30 74 -8 158t73 175t118 189t127 201t101 212t39 223q-10 24 -44 77t-82 125t-104 153t-107 161t-92 150t-61 118t-13 67zM355 1858q17 52 57 82t87 24t73 -70q14 -38 -5 -79t-54 -67t-75 -29t-64 33q-36 54 -19 106zM713 1871q17 53 57 82t87 23t73 -70 q14 -38 -5 -79t-54 -67t-75 -29t-64 35q-36 52 -19 105z" />
<glyph unicode="&#x2c6;" horiz-adv-x="1054" d="M168 1242q12 22 44 48t68 53t67 54t43 49q56 118 102 161t82 35t62 -54t42 -107t21 -125t-1 -107t-23 -52t-45 39q-6 8 -19 47t-31 79t-37 66t-35 8q-6 -12 -23 -40t-41 -63t-54 -69t-62 -58t-66 -32t-64 14q-14 8 -27 22t-3 32z" />
<glyph unicode="&#x2dc;" horiz-adv-x="1706" d="M212 1047q8 41 37 99t72 113t96 96t109 51t112 -22t104 -126q24 -106 65 -147t94 -38t117 40t131 85t136 96t135 76q14 -24 -15 -70t-85 -100t-131 -107t-152 -89t-148 -48t-119 18q-54 10 -88 39t-55 67t-33 77t-26 66t-31 37t-48 -11t-79 -79t-122 -166 q-50 -30 -67 -14t-9 57z" />
<glyph unicode="&#x2000;" horiz-adv-x="1198" />
<glyph unicode="&#x2001;" horiz-adv-x="2397" />
<glyph unicode="&#x2002;" horiz-adv-x="1198" />
<glyph unicode="&#x2003;" horiz-adv-x="2397" />
<glyph unicode="&#x2004;" horiz-adv-x="799" />
<glyph unicode="&#x2005;" horiz-adv-x="599" />
<glyph unicode="&#x2006;" horiz-adv-x="399" />
<glyph unicode="&#x2007;" horiz-adv-x="399" />
<glyph unicode="&#x2008;" horiz-adv-x="299" />
<glyph unicode="&#x2009;" horiz-adv-x="479" />
<glyph unicode="&#x200a;" horiz-adv-x="133" />
<glyph unicode="&#x2010;" horiz-adv-x="1244" d="M72 706q-32 32 4 62t115 55t189 43t227 28t229 8t195 -17t125 -45t18 -78q-26 0 -90 -4t-137 -8t-137 -8t-90 -6q-62 -6 -152 -30t-184 -40t-179 -12t-133 52z" />
<glyph unicode="&#x2011;" horiz-adv-x="1244" d="M72 706q-32 32 4 62t115 55t189 43t227 28t229 8t195 -17t125 -45t18 -78q-26 0 -90 -4t-137 -8t-137 -8t-90 -6q-62 -6 -152 -30t-184 -40t-179 -12t-133 52z" />
<glyph unicode="&#x2012;" horiz-adv-x="1244" d="M72 706q-32 32 4 62t115 55t189 43t227 28t229 8t195 -17t125 -45t18 -78q-26 0 -90 -4t-137 -8t-137 -8t-90 -6q-62 -6 -152 -30t-184 -40t-179 -12t-133 52z" />
<glyph unicode="&#x2013;" horiz-adv-x="1266" d="M60 538q2 8 49 20t123 25t172 25t198 22t200 14t177 2t130 -14t59 -36q4 -6 4 -28t-4 -30q-70 -6 -191 -13t-251 -15t-251 -16t-191 -12q-62 -4 -102 -2t-94 30q-4 2 -15 13t-13 15z" />
<glyph unicode="&#x2014;" horiz-adv-x="1706" d="M80 548q2 8 64 21t164 28t231 30t264 27t266 19t235 6t170 -12t74 -35q4 -6 4 -27t-4 -29q-46 -4 -143 -10t-220 -15t-258 -18t-258 -17t-220 -15t-143 -9q-62 -4 -103 -2t-95 30q-4 2 -15 13t-13 15z" />
<glyph unicode="&#x2018;" horiz-adv-x="422" d="M108 1116q0 32 1 60t3 40q0 2 7 23l16 48l18 54t15 43q28 74 47 91t30 -4t14 -72t-1 -111t-16 -122t-30 -105t-43 -59t-57 16q-2 10 -3 38t-1 60z" />
<glyph unicode="&#x2019;" horiz-adv-x="450" d="M144 1116q0 32 1 60t3 40q0 2 6 23t15 48l18 54t15 43q28 74 47 91t31 -4t15 -72t-1 -111t-16 -122t-30 -105t-43 -59t-57 16q-2 10 -3 38t-1 60z" />
<glyph unicode="&#x201a;" horiz-adv-x="312" d="M87 -36q1 44 8 85t21 85t32 100q28 74 47 91t30 -5t14 -72t-1 -111t-16 -123t-30 -105t-43 -59t-57 16q-6 54 -5 98z" />
<glyph unicode="&#x201c;" horiz-adv-x="686" d="M118 1383q0 53 2 89q0 42 18 32t39 -41t39 -65t18 -38q2 -32 3 -84t1 -102t-1 -86t-3 -38l-30 -28q-10 4 -30 25t-24 31q-12 34 -19 87t-10 109t-3 109zM404 1078v424q48 24 74 -1t36 -77t8 -122t-12 -134t-24 -113t-26 -61q-4 2 -15 13t-13 15q-6 10 -17 31t-11 25z" />
<glyph unicode="&#x201d;" horiz-adv-x="692" d="M144 1383q0 53 2 89q0 28 8 32t21 -8t27 -34t27 -44t21 -39t8 -19q2 -32 3 -84t1 -102t-1 -86t-3 -38l-28 -28q-4 2 -13 9t-18 16t-16 17t-9 14q-12 34 -18 87t-9 109t-3 109zM428 1078v424q48 24 74 -1t36 -77t8 -122t-12 -134t-23 -113t-25 -61q-4 2 -16 13t-14 15 q-6 10 -17 31t-11 25z" />
<glyph unicode="&#x201e;" horiz-adv-x="550" d="M84 121q0 53 2 89q0 28 8 32t21 -8t27 -34t27 -44t21 -39t8 -19q2 -32 3 -84t1 -101t-1 -85t-3 -38l-28 -30q-10 4 -31 25t-25 31q-12 34 -18 87t-9 109t-3 109zM368 -184v424q48 24 75 -1t37 -77t8 -122t-12 -134t-24 -113t-26 -61q-4 2 -15 13t-13 15q-6 10 -18 31 t-12 25z" />
<glyph unicode="&#x2022;" horiz-adv-x="804" d="M191 723q1 69 33 125t86 94t113 46t113 -22t88 -110q20 -48 9 -100t-44 -97t-80 -79t-96 -48t-96 -2t-79 58q-48 66 -47 135z" />
<glyph unicode="&#x2026;" horiz-adv-x="1100" d="M63 100q1 36 17 66t43 50t57 24t58 -12t44 -58q16 -38 -4 -79t-54 -67t-74 -29t-64 33t-23 72zM433 134q17 52 57 82t87 24t73 -70q14 -38 -5 -79t-54 -67t-75 -29t-64 33q-36 54 -19 106zM800 134q16 52 56 82t87 24t73 -70q14 -38 -5 -79t-54 -67t-74 -29t-63 33 q-36 54 -20 106z" />
<glyph unicode="&#x202f;" horiz-adv-x="479" />
<glyph unicode="&#x2039;" horiz-adv-x="1160" d="M32 818q4 40 54 86q22 20 68 62t105 95t123 111t123 111t105 95t68 62q12 4 35 0t41 -16t24 -29t-14 -39l-536 -536q-18 -18 -8 -44t36 -57t62 -62t70 -56t61 -43l33 -22q22 -16 68 -47t104 -70t123 -82t123 -82t105 -69t69 -44q26 -32 30 -63t-8 -51t-40 -22t-66 22 q-202 132 -407 268t-385 298q-40 36 -81 72t-65 74t-20 78z" />
<glyph unicode="&#x203a;" horiz-adv-x="862" d="M70 1384q0 6 7 15t16 18t18 16t15 7q54 -42 136 -94t170 -114t168 -131t128 -143t51 -152t-61 -156q-20 -26 -58 -71t-84 -100t-95 -114t-92 -110t-76 -90t-45 -53l-22 -22l-34 -34t-35 -34t-23 -22q-4 2 -12 10l-17 17t-17 18t-10 13q-24 48 10 108t99 127t146 139 t148 144t108 141t25 131q-2 6 -46 42t-109 88t-139 113t-136 119t-101 104t-33 70z" />
<glyph unicode="&#x205f;" horiz-adv-x="599" />
<glyph unicode="&#x20ac;" horiz-adv-x="1770" d="M52 724q-16 22 19 41t95 35t136 28t143 20t116 13t55 5q20 0 73 1t111 1t110 -1t74 -1q14 -8 25 -23t3 -35q-94 -12 -215 -31t-241 -40t-225 -40t-167 -29q-22 -4 -37 -3t-27 7t-23 18t-25 34zM192 1288q16 30 72 55t134 40t166 21t168 -2t140 -29t82 -57 q-10 -12 -68 -24t-139 -23t-175 -18t-175 -6t-138 10t-67 33zM209 359q-9 111 26 243t100 272t154 285t189 282t204 262t200 226t176 172t132 103q90 54 162 60t127 -20t94 -76t63 -108t35 -115t9 -99t-15 -60t-35 4q-4 30 -29 82t-61 104t-77 93t-75 49q-72 18 -167 -31 t-201 -144t-218 -228t-216 -286t-195 -314t-157 -314t-99 -286t-22 -228t73 -144t186 -31q140 20 264 49t240 65t230 80t238 94q46 16 73 -14t13 -72t-90 -87t-186 -85t-241 -72t-257 -49t-233 -17t-167 24q-122 48 -180 134t-67 197z" />
<glyph unicode="&#x2122;" horiz-adv-x="3928" d="M44 1272q16 34 108 67t230 65t310 60t349 51t346 40t301 25t215 7t87 -15q4 -10 11 -37t15 -57q40 20 76 50t82 58q90 54 143 47t77 -56t25 -130t-12 -175t-35 -193t-42 -182t-33 -142t-11 -75q22 -10 34 3t22 25q8 12 37 47t66 81t80 99t81 99t66 81t38 47q10 10 47 48 t82 83t89 87t66 64q192 180 320 275t204 121t107 -9t31 -111t-27 -187t-67 -239t-87 -264t-87 -264q-12 -34 -37 -115t-53 -171t-53 -170t-35 -114q0 -2 -6 -32t-16 -71t-26 -88t-38 -84t-50 -57t-62 -8q-4 2 -15 12t-13 16q-2 2 -2 14t2 16l10 30t17 53t18 54t11 31 q48 154 92 284t85 248t80 229t78 229t77 250t78 290q2 8 2 29t-2 27q-74 24 -164 -20t-188 -135t-201 -215t-203 -258t-194 -266t-173 -239t-139 -175t-94 -76q-10 -2 -25 0t-28 7t-23 11t-10 12v170q6 28 20 88t31 135t35 158t35 158t30 134t19 89q12 58 25 112t3 114 q-106 -38 -205 -124t-189 -198t-170 -242t-149 -256t-128 -240t-105 -195t-80 -120t-54 -15q-42 12 -29 87t60 187t120 249t153 275t156 264t130 216q-62 8 -114 21t-108 23t-121 12t-151 -16q-76 -16 -148 -87t-139 -175t-128 -232t-116 -258t-102 -251t-85 -213t-68 -143 t-50 -41q-6 4 -16 14t-12 14q-16 62 1 143t47 164t65 159t57 126q12 28 39 86t60 131t69 153t70 152t60 129t40 85q-42 8 -121 -8t-174 -39t-196 -48t-186 -37t-147 -4t-78 52z" />
<glyph unicode="&#x25fc;" horiz-adv-x="1040" d="M0 0v1040h1040v-1040h-1040z" />
<glyph unicode="&#xfb01;" horiz-adv-x="1344" d="M42 656q-2 14 2 22q8 2 28 10t42 17t42 18t28 13q8 2 42 14t73 25t72 26t39 19q28 20 70 99t94 189t115 236t135 242t152 207t167 130t179 12t190 -147q18 -24 26 -53t2 -59q-22 -14 -45 -6t-42 25t-33 36t-20 29q-112 18 -192 5t-138 -50t-99 -94t-76 -126t-69 -149 t-76 -160q-16 -30 -41 -77t-47 -92t-38 -78t-16 -35v-28q0 -6 29 -11t75 -10t100 -11t104 -17t89 -27t55 -38l-28 -26q-142 8 -240 6t-170 -33t-127 -98t-113 -187q-20 -42 -53 -108t-64 -129t-55 -110t-26 -49l-28 -28q-4 2 -13 10t-18 17t-16 18t-9 13q-4 6 -4 27t4 27 l210 482h-238q-6 0 -12 10t-11 24t-7 28zM702 -52q102 328 186 522t139 272t76 51t-3 -140t-100 -301t-214 -432q-20 -8 -47 -3t-37 31zM1136 1194q0 14 1 26t3 16q58 20 88 5t37 -44t-2 -62t-29 -49t-45 -5t-49 69q-2 6 -3 18t-1 26z" />
<glyph unicode="&#xfb02;" horiz-adv-x="1622" d="M42 656q-2 14 2 22q8 2 28 10t42 17t42 18t28 13q8 2 42 14t73 25t72 26t39 19q28 20 70 99t94 189t115 236t135 242t152 207t167 130t179 12t190 -147q18 -24 26 -53t2 -59q-22 -14 -45 -6t-42 25t-33 36t-20 29q-112 18 -192 5t-138 -50t-99 -94t-76 -126t-69 -149 t-76 -160q-16 -30 -41 -77t-47 -92t-38 -78t-16 -35v-28q0 -6 29 -11t75 -10t100 -11t104 -17t89 -27t55 -38l-28 -26q-142 8 -240 6t-170 -33t-127 -98t-113 -187q-20 -42 -53 -108t-64 -129t-55 -110t-26 -49l-28 -28q-4 2 -13 10t-18 17t-16 18t-9 13q-4 6 -4 27t4 27 l210 482h-238q-6 0 -12 10t-11 24t-7 28zM884 328q14 94 54 194t86 193t90 170t68 127q4 10 19 40t36 70t43 86t43 87t36 72t19 41q6 12 20 48t32 79t39 82t44 57t47 5t46 -75q-10 -26 -48 -100t-91 -179t-116 -232t-124 -258t-113 -255t-85 -225t-40 -168t23 -81 q36 -18 91 -14t116 15t119 21t98 8q10 -22 -15 -43t-70 -37t-103 -27t-112 -16t-96 -3t-56 12q-74 52 -94 132t-6 174z" />
</font>
</defs>
</svg>
